<svg width="1084" height="719" viewBox="0 0 1084 719" fill="none" xmlns="http://www.w3.org/2000/svg">
<path d="M56.045 580.844C56.5327 580.844 56.7996 580.751 56.8461 580.566C56.8809 580.415 66.5932 564.421 85.9831 532.584C86.1474 532.313 86.378 532.089 86.6525 531.934C86.927 531.778 87.2364 531.696 87.5506 531.696H110.906C111.164 531.696 111.412 531.799 111.595 531.982C111.778 532.165 111.881 532.413 111.881 532.671V635.862C111.881 636.217 111.74 636.558 111.488 636.81C111.237 637.061 110.896 637.203 110.54 637.203H89.24C88.949 637.203 88.6699 637.087 88.4642 636.881C88.2584 636.676 88.1428 636.396 88.1428 636.105V571.945C88.1453 571.788 88.0962 571.635 88.003 571.509C87.9099 571.383 87.7779 571.291 87.6274 571.247C87.4769 571.204 87.3161 571.211 87.1701 571.268C87.024 571.324 86.9008 571.428 86.8192 571.562L62.785 609.703C62.6081 609.983 62.3661 610.216 62.0806 610.38C61.795 610.544 61.4747 610.634 61.1479 610.643C60.846 610.643 59.1276 610.643 55.9927 610.643C52.8578 610.632 51.1394 610.62 50.8375 610.608C50.5107 610.6 50.1904 610.509 49.9048 610.345C49.6193 610.181 49.3773 609.948 49.2004 609.668L25.323 571.44C25.2415 571.306 25.1181 571.203 24.972 571.146C24.826 571.089 24.6654 571.082 24.5148 571.125C24.3643 571.169 24.2323 571.261 24.1392 571.387C24.046 571.513 23.9969 571.666 23.9994 571.823L23.7381 635.984C23.7335 636.272 23.616 636.546 23.4107 636.748C23.2054 636.95 22.9289 637.063 22.6409 637.063L1.34107 636.976C0.985406 636.976 0.644269 636.835 0.392776 636.583C0.141282 636.332 0 635.991 0 635.635L0.418075 532.445C0.418075 532.186 0.520797 531.938 0.703701 531.755C0.886605 531.572 1.13471 531.47 1.39337 531.47L24.7483 531.574C25.0625 531.574 25.3719 531.656 25.6464 531.812C25.9209 531.967 26.1515 532.191 26.3158 532.462C45.5779 564.38 55.2264 580.415 55.2613 580.566C55.3077 580.751 55.569 580.844 56.045 580.844Z" fill="white"/>
<path d="M169.58 636.018C169.58 636.369 169.439 636.706 169.187 636.954C168.936 637.202 168.595 637.342 168.239 637.342H147.148C146.866 637.342 146.596 637.23 146.397 637.031C146.198 636.831 146.086 636.561 146.086 636.279V532.131C146.086 531.979 146.146 531.833 146.254 531.725C146.362 531.617 146.508 531.557 146.66 531.557C169.568 531.638 185.04 531.696 193.074 531.731C205.44 531.8 221.097 542.616 223.953 555.173C225.346 561.268 225.625 567.219 224.789 573.024C222.525 588.821 207.861 598.696 192.134 599.845C185.434 600.344 178.451 600.426 171.182 600.089C170.975 600.079 170.769 600.113 170.574 600.186C170.38 600.26 170.203 600.373 170.054 600.517C169.904 600.662 169.785 600.836 169.703 601.029C169.622 601.222 169.58 601.429 169.58 601.639V636.018ZM169.841 552.891L169.702 578.493C169.7 578.627 169.724 578.76 169.774 578.885C169.823 579.009 169.898 579.123 169.992 579.219C170.086 579.314 170.198 579.39 170.321 579.442C170.445 579.494 170.578 579.521 170.712 579.521L187.78 579.608C189.56 579.617 191.324 579.297 192.971 578.665C194.619 578.033 196.118 577.102 197.383 575.924C198.648 574.747 199.653 573.346 200.342 571.803C201.031 570.259 201.391 568.603 201.399 566.929V564.804C201.417 561.423 200.006 558.174 197.478 555.77C194.95 553.367 191.512 552.005 187.919 551.986L170.851 551.899C170.586 551.899 170.332 552.003 170.143 552.188C169.954 552.374 169.846 552.626 169.841 552.891Z" fill="white"/>
<path d="M275.937 582.776C276.181 622.851 322.246 638.943 347.883 608.918C347.983 608.801 348.105 608.704 348.243 608.635C348.381 608.565 348.531 608.523 348.685 608.512C348.839 608.5 348.993 608.52 349.14 608.569C349.286 608.617 349.421 608.695 349.537 608.796L356.939 615.24C357.193 615.465 357.349 615.779 357.375 616.117C357.401 616.455 357.295 616.79 357.079 617.051C339.61 638.107 310.752 642.897 287.867 628.755C271.548 618.688 263.206 602.213 263.084 582.864C262.98 563.514 271.148 546.934 287.345 536.676C310.073 522.273 338.983 526.731 356.678 547.596C356.896 547.855 357.006 548.188 356.983 548.526C356.96 548.864 356.807 549.18 356.556 549.407L349.241 555.938C349.126 556.041 348.992 556.119 348.846 556.17C348.7 556.22 348.546 556.241 348.392 556.231C348.238 556.221 348.088 556.181 347.95 556.113C347.812 556.045 347.688 555.95 347.587 555.834C321.602 526.087 275.711 542.719 275.937 582.776Z" fill="white"/>
<path d="M472.599 635.322H458.248C458.099 635.321 457.953 635.283 457.825 635.209C457.696 635.136 457.59 635.031 457.517 634.904L434.475 594.969C434.332 594.724 434.126 594.522 433.879 594.381C433.631 594.241 433.35 594.167 433.064 594.168H410.145C409.957 594.168 409.772 594.204 409.598 594.275C409.425 594.346 409.268 594.45 409.135 594.581C409.003 594.712 408.897 594.867 408.826 595.038C408.754 595.21 408.717 595.393 408.717 595.578V633.807C408.717 634.162 408.576 634.503 408.324 634.755C408.073 635.006 407.731 635.148 407.376 635.148H396.978C396.655 635.148 396.345 635.019 396.116 634.79C395.888 634.562 395.759 634.252 395.759 633.928V531.33C395.759 531.007 395.888 530.697 396.116 530.468C396.345 530.24 396.655 530.111 396.978 530.111C409.797 530.111 422.894 530.042 436.269 529.902C440.286 529.856 444.53 530.686 449 532.393C461.006 536.967 467.792 544.805 469.36 555.904C471.711 572.711 465.354 585.146 449.314 591.468C449.057 591.57 448.826 591.727 448.636 591.927C448.445 592.127 448.3 592.366 448.211 592.628C448.122 592.889 448.09 593.167 448.118 593.442C448.146 593.716 448.233 593.982 448.373 594.22L472.703 635.148C472.712 635.166 472.716 635.186 472.715 635.206C472.714 635.226 472.708 635.245 472.698 635.263C472.688 635.28 472.673 635.294 472.656 635.305C472.639 635.315 472.619 635.321 472.599 635.322ZM408.665 543.086V580.531C408.665 580.914 408.817 581.282 409.088 581.553C409.359 581.824 409.727 581.976 410.11 581.976H434.928C440.665 581.976 446.167 579.908 450.223 576.227C454.28 572.546 456.559 567.554 456.559 562.348V561.269C456.559 556.063 454.28 551.071 450.223 547.39C446.167 543.709 440.665 541.641 434.928 541.641H410.11C409.727 541.641 409.359 541.793 409.088 542.064C408.817 542.335 408.665 542.703 408.665 543.086Z" fill="white"/>
<path d="M571.088 582.359C571.088 584.623 571.064 586.383 571.018 587.636C571.013 587.828 570.932 588.009 570.792 588.143C570.652 588.276 570.464 588.351 570.269 588.351H525.893C525.737 588.351 525.583 588.381 525.44 588.441C525.296 588.5 525.165 588.587 525.055 588.697C524.945 588.807 524.858 588.938 524.799 589.082C524.739 589.225 524.709 589.379 524.709 589.535V621.964C524.709 622.296 524.841 622.615 525.076 622.85C525.311 623.085 525.63 623.218 525.962 623.218H579.587C579.845 623.218 580.093 623.32 580.276 623.503C580.459 623.686 580.562 623.934 580.562 624.193V634.05C580.562 634.281 580.47 634.503 580.307 634.666C580.144 634.829 579.922 634.921 579.691 634.921H512.953C512.648 634.921 512.355 634.802 512.14 634.59C511.924 634.377 511.803 634.089 511.803 633.789C511.792 632.825 511.762 615.711 511.716 582.446C511.67 549.17 511.652 532.05 511.664 531.086C511.664 530.789 511.782 530.504 511.994 530.292C512.206 530.08 512.494 529.959 512.796 529.954L579.534 529.763C579.65 529.761 579.765 529.781 579.873 529.824C579.981 529.867 580.079 529.931 580.161 530.012C580.244 530.093 580.31 530.19 580.354 530.296C580.399 530.403 580.423 530.518 580.423 530.634L580.44 540.491C580.44 540.75 580.337 540.998 580.154 541.181C579.971 541.364 579.723 541.466 579.465 541.466L525.841 541.623C525.511 541.628 525.197 541.762 524.965 541.997C524.734 542.231 524.604 542.548 524.604 542.877L524.691 575.306C524.691 575.62 524.816 575.921 525.038 576.143C525.26 576.365 525.561 576.49 525.875 576.49L570.252 576.368C570.447 576.368 570.635 576.443 570.775 576.576C570.915 576.71 570.996 576.891 571 577.082C571.047 578.336 571.076 580.095 571.088 582.359Z" fill="white"/>
<path d="M658.359 530.042C660.542 530.054 662.539 530.112 664.35 530.216C664.642 530.233 664.923 530.334 665.161 530.507C665.398 530.679 665.582 530.917 665.691 531.191L705.975 633.546C706.051 633.741 706.079 633.953 706.055 634.161C706.032 634.37 705.957 634.57 705.839 634.743C705.72 634.916 705.561 635.058 705.376 635.156C705.19 635.254 704.983 635.305 704.773 635.305H694.759C694.22 635.305 693.695 635.143 693.251 634.842C692.806 634.541 692.464 634.113 692.268 633.615L682.672 609.233C682.591 609.022 682.447 608.841 682.261 608.713C682.074 608.586 681.853 608.518 681.627 608.519C680.64 608.519 672.803 608.496 658.115 608.449C643.439 608.403 635.608 608.379 634.621 608.379C634.395 608.378 634.174 608.446 633.987 608.574C633.801 608.701 633.657 608.883 633.576 609.094L623.84 633.424C623.641 633.921 623.294 634.347 622.847 634.645C622.4 634.943 621.872 635.1 621.333 635.096L611.318 635.026C611.11 635.023 610.905 634.97 610.722 634.871C610.538 634.772 610.381 634.63 610.265 634.457C610.148 634.284 610.076 634.085 610.053 633.878C610.03 633.671 610.058 633.461 610.134 633.267L651.01 531.157C651.118 530.882 651.302 530.644 651.54 530.472C651.778 530.299 652.059 530.198 652.35 530.181C654.162 530.088 656.165 530.042 658.359 530.042ZM639.393 594.986C639.339 595.129 639.321 595.283 639.34 595.435C639.359 595.586 639.415 595.731 639.502 595.856C639.59 595.981 639.707 596.083 639.842 596.153C639.978 596.223 640.129 596.259 640.281 596.258H676.367C676.52 596.259 676.671 596.223 676.806 596.153C676.942 596.083 677.059 595.981 677.146 595.856C677.234 595.731 677.289 595.586 677.308 595.435C677.327 595.283 677.309 595.129 677.256 594.986L659.195 548.068C659.124 547.895 659.004 547.747 658.849 547.642C658.694 547.538 658.511 547.482 658.324 547.482C658.137 547.482 657.955 547.538 657.8 547.642C657.644 547.747 657.524 547.895 657.453 548.068L639.393 594.986Z" fill="white"/>
<path d="M758.92 529.989C771.552 529.977 784.074 530.018 796.486 530.111C796.823 530.111 797.147 530.245 797.385 530.483C797.624 530.722 797.758 531.045 797.758 531.382V540.212C797.758 540.628 797.594 541.027 797.304 541.321C797.013 541.614 796.619 541.78 796.208 541.78H766.165C765.902 541.78 765.649 541.884 765.463 542.07C765.277 542.257 765.172 542.509 765.172 542.772V634.05C765.172 634.203 765.141 634.355 765.081 634.496C765.021 634.637 764.933 634.764 764.822 634.87C764.712 634.975 764.581 635.058 764.437 635.111C764.294 635.165 764.141 635.189 763.988 635.182C763.5 635.17 761.764 635.159 758.781 635.147C755.797 635.147 754.061 635.153 753.573 635.165C753.42 635.172 753.267 635.148 753.124 635.094C752.98 635.04 752.849 634.958 752.738 634.852C752.628 634.746 752.54 634.619 752.48 634.478C752.419 634.337 752.389 634.186 752.389 634.033L752.615 542.755C752.615 542.495 752.513 542.245 752.33 542.059C752.148 541.873 751.9 541.767 751.64 541.762L721.597 541.693C721.392 541.693 721.189 541.651 721 541.572C720.811 541.492 720.639 541.375 720.495 541.227C720.351 541.08 720.237 540.905 720.16 540.713C720.083 540.521 720.045 540.315 720.047 540.108L720.064 531.278C720.064 530.941 720.198 530.617 720.437 530.379C720.675 530.14 720.999 530.006 721.336 530.006C733.748 529.948 746.276 529.943 758.92 529.989Z" fill="white"/>
<path d="M846.957 530.145H836.333C835.727 530.145 835.236 530.636 835.236 531.242V633.997C835.236 634.603 835.727 635.094 836.333 635.094H846.957C847.563 635.094 848.054 634.603 848.054 633.997V531.242C848.054 530.636 847.563 530.145 846.957 530.145Z" fill="white"/>
<path d="M930.572 617.067C930.642 617.067 930.706 617.061 930.764 617.049C930.792 617.05 930.827 617.023 930.865 616.972C930.903 616.922 930.941 616.851 930.973 616.771L963.332 530.927C963.41 530.722 963.548 530.546 963.728 530.421C963.909 530.297 964.123 530.23 964.342 530.23H975.941C976.13 530.232 976.315 530.279 976.481 530.368C976.647 530.457 976.79 530.584 976.896 530.74C977.002 530.896 977.069 531.075 977.091 531.262C977.112 531.449 977.088 531.639 977.021 531.815L937.713 634.204C937.599 634.499 937.4 634.752 937.142 634.932C936.885 635.112 936.58 635.21 936.267 635.214C936.105 635.214 934.195 635.214 930.538 635.214C926.892 635.203 924.988 635.197 924.825 635.197C924.512 635.193 924.208 635.095 923.95 634.915C923.693 634.735 923.494 634.481 923.379 634.187L884.333 531.693C884.265 531.517 884.241 531.328 884.263 531.14C884.285 530.953 884.352 530.774 884.458 530.618C884.564 530.462 884.706 530.335 884.872 530.246C885.039 530.157 885.224 530.11 885.412 530.108L897.012 530.143C897.231 530.143 897.445 530.21 897.625 530.334C897.806 530.459 897.944 530.635 898.022 530.84L930.154 616.771C930.186 616.851 930.224 616.923 930.262 616.973C930.3 617.023 930.335 617.05 930.363 617.049C930.433 617.061 930.503 617.067 930.572 617.067Z" fill="white"/>
<path d="M1081.24 541.639H1027.6C1027.31 541.639 1027.03 541.755 1026.82 541.961C1026.62 542.166 1026.5 542.446 1026.5 542.737V574.956C1026.5 575.247 1026.62 575.526 1026.82 575.732C1027.03 575.938 1027.31 576.053 1027.6 576.053H1072.2C1072.49 576.053 1072.77 576.169 1072.98 576.375C1073.18 576.581 1073.3 576.86 1073.3 577.151V586.921C1073.3 587.212 1073.18 587.491 1072.98 587.697C1072.77 587.903 1072.49 588.018 1072.2 588.018H1027.79C1027.64 588.018 1027.5 588.047 1027.37 588.102C1027.24 588.157 1027.11 588.238 1027.01 588.34C1026.91 588.442 1026.83 588.563 1026.77 588.696C1026.72 588.829 1026.69 588.971 1026.69 589.116V621.945C1026.69 622.089 1026.72 622.232 1026.77 622.365C1026.83 622.498 1026.91 622.619 1027.01 622.721C1027.11 622.823 1027.24 622.903 1027.37 622.959C1027.5 623.014 1027.64 623.042 1027.79 623.042H1082.46C1082.75 623.042 1083.03 623.158 1083.23 623.363C1083.44 623.569 1083.55 623.848 1083.55 624.139V634.188C1083.55 634.479 1083.44 634.758 1083.23 634.964C1083.03 635.17 1082.75 635.286 1082.46 635.286H1014.94C1014.64 635.286 1014.37 635.17 1014.16 634.964C1013.95 634.758 1013.84 634.479 1013.84 634.188V531.155C1013.84 530.864 1013.95 530.585 1014.16 530.379C1014.37 530.173 1014.64 530.058 1014.94 530.058H1081.24C1081.53 530.058 1081.81 530.173 1082.01 530.379C1082.22 530.585 1082.34 530.864 1082.34 531.155V540.542C1082.34 540.833 1082.22 541.112 1082.01 541.318C1081.81 541.524 1081.53 541.639 1081.24 541.639Z" fill="white"/>
<path d="M239.886 684.697C239.699 684.751 239.5 684.745 239.317 684.681C239.133 684.616 238.974 684.496 238.861 684.338C238.749 684.179 238.688 683.99 238.688 683.795C238.687 683.601 238.747 683.411 238.859 683.252C239.985 681.661 241.709 680.041 244.031 678.393C244.308 678.197 244.637 678.09 244.975 678.083C245.314 678.077 245.646 678.173 245.93 678.358C248.055 679.751 249.541 681.208 250.388 682.729C250.462 682.864 250.506 683.013 250.517 683.166C250.528 683.318 250.506 683.471 250.453 683.612C250.4 683.753 250.316 683.88 250.209 683.984C250.101 684.087 249.972 684.164 249.831 684.21L249.674 684.262C249.349 684.37 248.999 684.376 248.672 684.279C248.345 684.182 248.056 683.988 247.846 683.722C246.917 682.561 246.104 681.847 245.407 681.58C245.121 681.467 244.807 681.445 244.508 681.516C244.209 681.588 243.939 681.75 243.735 681.98C242.412 683.443 241.129 684.349 239.886 684.697Z" fill="white"/>
<path d="M212.648 703.036C212.973 704.348 213.083 706.949 212.979 710.838C212.909 713.323 211.806 715.117 209.67 716.22C197.966 722.246 185.043 717.648 183.911 703.837C182.675 688.894 199.046 679.907 210.558 690.044C210.877 690.324 211.086 690.709 211.147 691.127C211.208 691.546 211.116 691.971 210.889 692.325L210.54 692.882C210.462 693.008 210.357 693.115 210.233 693.195C210.108 693.275 209.967 693.326 209.82 693.344C209.673 693.363 209.524 693.348 209.383 693.301C209.243 693.254 209.114 693.177 209.008 693.074C200.631 685.063 189.258 689.451 187.621 700.232C185.879 711.709 194.849 718.153 205.49 714.618C209.687 713.224 210.366 709.724 209.426 705.962C209.368 705.724 209.231 705.512 209.039 705.361C208.846 705.209 208.608 705.127 208.363 705.126H202.982C202.668 705.126 202.367 705.001 202.144 704.779C201.922 704.557 201.798 704.256 201.798 703.942V703.245C201.798 702.949 201.915 702.666 202.124 702.457C202.333 702.248 202.617 702.13 202.912 702.13H211.498C211.761 702.131 212.017 702.22 212.225 702.384C212.433 702.548 212.582 702.777 212.648 703.036Z" fill="white"/>
<path d="M956.75 702.323C957.011 702.329 957.262 702.423 957.464 702.59C957.666 702.757 957.807 702.988 957.865 703.246C958.167 704.558 958.219 707.141 958.022 710.996C957.894 713.469 956.756 715.228 954.608 716.273C942.835 721.985 930.104 717.109 929.303 703.35C928.432 688.477 944.908 679.943 956.106 690.288C956.416 690.573 956.614 690.957 956.665 691.373C956.716 691.788 956.617 692.207 956.385 692.552L956.019 693.11C955.938 693.233 955.831 693.337 955.704 693.413C955.578 693.49 955.437 693.538 955.29 693.553C955.143 693.568 954.995 693.55 954.856 693.5C954.717 693.451 954.591 693.371 954.486 693.266C946.353 685.098 934.963 689.191 933.082 699.867C931.079 711.222 939.839 717.841 950.481 714.584C954.695 713.295 955.444 709.829 954.608 706.067C954.554 705.827 954.421 705.612 954.231 705.457C954.041 705.302 953.806 705.216 953.563 705.214L948.217 705.092C947.905 705.083 947.611 704.952 947.395 704.727C947.18 704.502 947.062 704.201 947.067 703.89L947.084 703.194C947.094 702.901 947.217 702.624 947.429 702.422C947.641 702.22 947.924 702.109 948.217 702.114L956.75 702.323Z" fill="white"/>
<path d="M152.841 686.042C153.805 686.042 154.42 686.356 154.687 686.983C157.172 692.858 161.235 702.866 166.878 717.008C166.946 717.179 166.971 717.364 166.952 717.547C166.932 717.73 166.868 717.906 166.765 718.059C166.662 718.211 166.523 718.337 166.361 718.424C166.199 718.511 166.017 718.557 165.833 718.558H165.102C164.786 718.557 164.478 718.463 164.214 718.286C163.951 718.11 163.745 717.859 163.621 717.565L160.835 710.86C160.688 710.516 160.437 710.227 160.118 710.036C159.798 709.845 159.427 709.762 159.058 709.798C158.757 709.798 156.69 709.798 152.858 709.798C149.015 709.798 146.948 709.798 146.658 709.798C146.289 709.762 145.918 709.845 145.599 710.036C145.28 710.227 145.028 710.516 144.882 710.86L142.095 717.565C141.972 717.859 141.766 718.11 141.502 718.286C141.239 718.463 140.93 718.557 140.615 718.558H139.883C139.699 718.557 139.518 718.511 139.356 718.424C139.193 718.337 139.055 718.211 138.952 718.059C138.849 717.906 138.785 717.73 138.765 717.547C138.745 717.364 138.77 717.179 138.838 717.008C144.481 702.866 148.545 692.858 151.03 686.983C151.297 686.356 151.9 686.042 152.841 686.042ZM152.91 706.732C156.278 706.744 158.013 706.744 158.118 706.732C158.273 706.71 158.421 706.651 158.548 706.558C158.675 706.466 158.778 706.344 158.848 706.202C158.918 706.06 158.953 705.903 158.95 705.744C158.948 705.584 158.907 705.428 158.832 705.287C156.963 701.815 155.279 697.717 153.781 692.991C153.63 692.515 153.363 692.271 152.98 692.26C152.609 692.26 152.342 692.498 152.179 692.974C150.635 697.688 148.911 701.775 147.007 705.235C146.932 705.374 146.891 705.53 146.887 705.688C146.883 705.846 146.917 706.002 146.985 706.144C147.053 706.285 147.154 706.408 147.279 706.501C147.404 706.594 147.549 706.656 147.703 706.68C147.808 706.692 149.543 706.709 152.91 706.732Z" fill="white"/>
<path d="M234.487 702.185C234.487 692.966 234.487 687.933 234.487 687.086C234.487 686.845 234.583 686.615 234.753 686.445C234.922 686.275 235.153 686.18 235.393 686.18L254.22 685.988C254.38 685.986 254.539 686.015 254.688 686.075C254.836 686.134 254.972 686.222 255.087 686.333C255.202 686.445 255.293 686.578 255.357 686.725C255.42 686.872 255.454 687.03 255.456 687.19L255.474 687.73C255.476 687.905 255.443 688.079 255.378 688.242C255.312 688.404 255.215 688.552 255.092 688.677C254.969 688.802 254.822 688.901 254.661 688.969C254.499 689.036 254.325 689.071 254.15 689.071L238.824 689.228C238.679 689.228 238.536 689.257 238.403 689.313C238.269 689.37 238.149 689.452 238.048 689.556C237.947 689.66 237.868 689.783 237.816 689.919C237.764 690.054 237.739 690.198 237.744 690.342L237.849 699.66C237.848 699.812 237.879 699.963 237.94 700.103C238 700.243 238.088 700.369 238.199 700.474C238.31 700.578 238.442 700.659 238.585 700.711C238.728 700.762 238.881 700.784 239.033 700.775C239.892 700.728 243.753 700.664 250.615 700.583C251.149 700.571 251.543 700.717 251.799 701.018C252.089 701.344 252.234 701.709 252.234 702.116C252.234 702.615 252.089 703.027 251.799 703.352C251.555 703.654 251.16 703.799 250.615 703.788C243.753 703.718 239.892 703.66 239.033 703.613C238.881 703.604 238.728 703.626 238.585 703.677C238.442 703.729 238.31 703.81 238.199 703.914C238.088 704.019 238 704.145 237.94 704.285C237.879 704.425 237.848 704.576 237.849 704.728L237.762 714.046C237.759 714.187 237.785 714.328 237.837 714.46C237.889 714.592 237.967 714.712 238.065 714.814C238.164 714.916 238.282 714.998 238.412 715.054C238.542 715.11 238.682 715.141 238.824 715.143L254.167 715.3C254.341 715.302 254.513 715.338 254.673 715.407C254.832 715.476 254.977 715.575 255.098 715.7C255.22 715.824 255.315 715.971 255.38 716.133C255.444 716.294 255.476 716.467 255.474 716.641V717.163C255.474 717.325 255.442 717.485 255.379 717.634C255.317 717.783 255.225 717.918 255.11 718.031C254.995 718.145 254.859 718.234 254.709 718.295C254.559 718.355 254.399 718.385 254.237 718.382L235.393 718.191C235.153 718.191 234.922 718.095 234.753 717.925C234.583 717.756 234.487 717.525 234.487 717.285C234.487 716.449 234.487 711.416 234.487 702.185Z" fill="white"/>
<path d="M290.62 701.555C292.884 704.736 295.259 708.016 297.743 711.395C297.791 711.461 297.852 711.515 297.922 711.556C297.992 711.596 298.07 711.621 298.15 711.63C298.231 711.638 298.312 711.629 298.389 711.604C298.466 711.578 298.537 711.537 298.597 711.482C298.84 711.238 298.962 710.925 298.962 710.542C298.835 702.414 298.811 694.763 298.893 687.587C298.897 687.239 299.039 686.907 299.286 686.662C299.534 686.418 299.868 686.281 300.216 686.281H301.087C301.415 686.281 301.73 686.413 301.961 686.648C302.193 686.883 302.324 687.202 302.324 687.535V716.951C302.322 717.38 302.186 717.799 301.935 718.148C301.683 718.496 301.329 718.757 300.921 718.894C300.514 719.03 300.073 719.035 299.663 718.909C299.252 718.782 298.891 718.53 298.631 718.187C297.923 717.258 294.417 712.364 288.112 703.505C285.883 700.301 283.526 697.009 281.041 693.63C280.992 693.566 280.931 693.513 280.86 693.474C280.789 693.435 280.711 693.412 280.63 693.405C280.55 693.398 280.469 693.409 280.392 693.436C280.316 693.463 280.246 693.505 280.188 693.561C279.944 693.805 279.822 694.118 279.822 694.501C279.95 702.629 279.973 710.28 279.892 717.456C279.887 717.804 279.746 718.136 279.498 718.38C279.25 718.625 278.916 718.762 278.568 718.762H277.697C277.369 718.762 277.055 718.63 276.823 718.395C276.591 718.159 276.461 717.841 276.461 717.508V688.092C276.458 687.661 276.592 687.24 276.842 686.888C277.092 686.537 277.447 686.273 277.855 686.135C278.263 685.996 278.705 685.989 279.118 686.115C279.53 686.242 279.892 686.495 280.153 686.838C280.861 687.779 284.35 692.684 290.62 701.555Z" fill="white"/>
<path d="M327.49 702.409C327.508 709.462 331.444 715.018 338.845 715.505C342.932 715.761 346.288 714.455 348.912 711.587C349.064 711.42 349.248 711.288 349.455 711.197C349.661 711.107 349.884 711.061 350.109 711.063C350.334 711.064 350.556 711.114 350.761 711.207C350.966 711.3 351.149 711.435 351.298 711.604L351.437 711.778C351.59 711.949 351.708 712.148 351.783 712.365C351.858 712.581 351.889 712.81 351.874 713.039C351.86 713.268 351.8 713.491 351.698 713.696C351.596 713.902 351.454 714.084 351.281 714.234C340.117 723.743 324.233 717.613 324.199 702.409C324.146 687.204 340.012 680.987 351.211 690.461C351.386 690.61 351.529 690.791 351.632 690.996C351.736 691.201 351.797 691.424 351.814 691.652C351.83 691.881 351.8 692.111 351.727 692.328C351.653 692.545 351.537 692.745 351.385 692.917L351.246 693.091C351.097 693.26 350.914 693.395 350.709 693.488C350.504 693.582 350.282 693.631 350.057 693.632C349.832 693.634 349.609 693.588 349.402 693.498C349.196 693.408 349.011 693.275 348.86 693.108C346.224 690.252 342.863 688.963 338.776 689.242C331.391 689.764 327.473 695.355 327.49 702.409Z" fill="white"/>
<path d="M374.93 686.109H374.164C373.414 686.109 372.806 686.718 372.806 687.468V717.11C372.806 717.86 373.414 718.468 374.164 718.468H374.93C375.681 718.468 376.289 717.86 376.289 717.11V687.468C376.289 686.718 375.681 686.109 374.93 686.109Z" fill="white"/>
<path d="M410.633 709.777C406.778 709.753 404.706 709.742 404.416 709.742C404.044 709.702 403.669 709.784 403.346 709.975C403.023 710.166 402.769 710.457 402.622 710.804L399.8 717.509C399.677 717.803 399.471 718.054 399.208 718.231C398.944 718.407 398.636 718.502 398.32 718.502H397.571C397.386 718.499 397.205 718.451 397.043 718.362C396.881 718.273 396.743 718.145 396.642 717.991C396.541 717.836 396.479 717.659 396.461 717.475C396.444 717.291 396.473 717.105 396.544 716.935C402.268 702.781 406.39 692.767 408.909 686.892C409.176 686.253 409.792 685.94 410.755 685.951C411.696 685.951 412.299 686.271 412.566 686.909C415.039 692.808 419.068 702.862 424.653 717.074C424.721 717.245 424.746 717.43 424.727 717.613C424.707 717.797 424.643 717.972 424.54 718.125C424.437 718.277 424.298 718.403 424.136 718.49C423.974 718.577 423.792 718.623 423.608 718.624H422.877C422.559 718.622 422.249 718.525 421.986 718.345C421.722 718.166 421.517 717.911 421.396 717.614L418.627 710.874C418.481 710.53 418.23 710.241 417.91 710.05C417.591 709.859 417.22 709.776 416.851 709.812C416.549 709.8 414.476 709.788 410.633 709.777ZM404.694 705.562C404.646 705.678 404.627 705.804 404.638 705.928C404.65 706.053 404.692 706.173 404.76 706.278C404.829 706.383 404.923 706.47 405.033 706.53C405.142 706.59 405.266 706.623 405.391 706.624L415.945 706.659C416.071 706.658 416.194 706.625 416.304 706.565C416.414 706.504 416.507 706.418 416.576 706.313C416.645 706.208 416.687 706.088 416.698 705.963C416.71 705.838 416.69 705.713 416.642 705.597L411.417 692.848C411.358 692.71 411.26 692.592 411.135 692.509C411.009 692.426 410.862 692.381 410.712 692.381C410.561 692.381 410.414 692.426 410.289 692.509C410.163 692.592 410.065 692.71 410.006 692.848L404.694 705.562Z" fill="white"/>
<path d="M469.536 686.806C469.536 686.723 469.552 686.642 469.583 686.566C469.615 686.49 469.661 686.421 469.719 686.362C469.777 686.304 469.846 686.258 469.922 686.226C469.999 686.195 470.08 686.179 470.162 686.179L480.508 686.231C482.571 686.238 484.612 686.653 486.515 687.452C488.419 688.251 490.147 689.419 491.6 690.889C493.054 692.359 494.206 694.103 494.989 696.02C495.772 697.937 496.171 699.99 496.165 702.062V702.828C496.151 707.013 494.482 711.021 491.526 713.971C488.571 716.92 484.569 718.569 480.403 718.555L470.058 718.503C469.892 718.503 469.732 718.437 469.615 718.319C469.497 718.202 469.431 718.042 469.431 717.876L469.536 686.806ZM472.845 689.923L473.019 714.793C473.019 714.946 473.079 715.092 473.187 715.2C473.295 715.307 473.441 715.368 473.593 715.368L480.542 715.316C482.134 715.304 483.708 714.98 485.174 714.362C486.641 713.744 487.971 712.845 489.088 711.714C490.206 710.584 491.089 709.245 491.688 707.774C492.286 706.303 492.588 704.729 492.577 703.142V701.296C492.566 699.709 492.241 698.139 491.621 696.677C491.001 695.215 490.099 693.889 488.965 692.775C487.831 691.66 486.489 690.78 485.014 690.183C483.539 689.586 481.96 689.285 480.368 689.296L473.419 689.348C473.267 689.348 473.121 689.409 473.013 689.517C472.905 689.625 472.845 689.771 472.845 689.923Z" fill="white"/>
<path d="M535.785 702.148C535.785 702.647 535.646 703.066 535.367 703.402C535.112 703.704 534.711 703.855 534.165 703.855C527.246 703.843 523.35 703.82 522.479 703.785C522.327 703.776 522.175 703.798 522.032 703.851C521.888 703.903 521.757 703.985 521.646 704.091C521.535 704.197 521.447 704.325 521.386 704.467C521.326 704.61 521.295 704.763 521.295 704.917V714.322C521.295 714.613 521.411 714.892 521.616 715.098C521.822 715.304 522.101 715.419 522.392 715.419H537.858C538.034 715.419 538.208 715.454 538.371 715.521C538.534 715.589 538.681 715.688 538.806 715.812C538.93 715.937 539.029 716.084 539.097 716.247C539.164 716.41 539.199 716.584 539.199 716.76V717.3C539.199 717.628 539.068 717.943 538.836 718.175C538.605 718.407 538.29 718.537 537.962 718.537H518.961C518.719 718.537 518.487 718.442 518.315 718.273C518.142 718.103 518.043 717.873 518.038 717.631C518.027 716.784 517.974 711.704 517.882 702.392C517.789 693.092 517.736 688.018 517.725 687.17C517.725 686.929 517.82 686.696 517.989 686.524C518.158 686.351 518.389 686.252 518.63 686.247L537.631 685.847C537.794 685.845 537.955 685.874 538.106 685.934C538.257 685.994 538.394 686.083 538.511 686.197C538.627 686.31 538.72 686.445 538.784 686.594C538.849 686.743 538.883 686.904 538.885 687.066L538.903 687.606C538.905 687.782 538.872 687.957 538.807 688.12C538.742 688.284 538.645 688.433 538.522 688.559C538.399 688.685 538.253 688.786 538.091 688.856C537.929 688.925 537.755 688.962 537.579 688.964L522.131 689.295C521.987 689.297 521.845 689.328 521.712 689.385C521.58 689.443 521.461 689.525 521.36 689.629C521.26 689.732 521.181 689.855 521.128 689.989C521.075 690.123 521.049 690.266 521.051 690.41L521.243 699.815C521.247 699.968 521.282 700.119 521.346 700.258C521.409 700.397 521.5 700.522 521.612 700.624C521.725 700.727 521.857 700.805 522 700.855C522.143 700.904 522.294 700.924 522.445 700.912C523.315 700.865 527.211 700.767 534.131 700.616C534.676 700.604 535.077 700.743 535.332 701.034C535.634 701.37 535.785 701.742 535.785 702.148Z" fill="white"/>
<path d="M601.026 705.231C601.259 705.231 601.415 705.208 601.497 705.162C601.706 705.069 601.827 704.987 601.862 704.918C606.878 696.012 610.483 690.103 612.678 687.188C613.177 686.515 613.891 686.155 614.82 686.108C615.022 686.099 615.225 686.13 615.415 686.2C615.605 686.271 615.778 686.378 615.925 686.517C616.071 686.655 616.188 686.821 616.267 687.006C616.347 687.19 616.388 687.388 616.387 687.589V717.527C616.387 717.667 616.36 717.805 616.306 717.934C616.253 718.063 616.175 718.18 616.076 718.278C615.978 718.377 615.86 718.455 615.731 718.509C615.602 718.562 615.464 718.589 615.325 718.589H614.628C614.222 718.589 613.832 718.43 613.545 718.146C613.257 717.861 613.096 717.476 613.096 717.074V694.695C613.095 694.526 613.039 694.363 612.936 694.23C612.834 694.097 612.69 694.001 612.528 693.958C612.366 693.914 612.193 693.925 612.038 693.989C611.882 694.053 611.752 694.166 611.668 694.311C609.148 698.642 606.147 703.548 602.663 709.028C602.025 710.027 601.473 710.526 601.009 710.526C600.545 710.526 599.999 710.021 599.372 709.011C595.923 703.519 592.951 698.602 590.455 694.259C590.375 694.106 590.246 693.985 590.089 693.914C589.931 693.844 589.755 693.829 589.588 693.871C589.42 693.913 589.272 694.011 589.167 694.147C589.062 694.284 589.007 694.452 589.009 694.625L588.905 717.005C588.905 717.205 588.865 717.404 588.786 717.588C588.708 717.773 588.594 717.941 588.45 718.082C588.306 718.223 588.135 718.334 587.947 718.409C587.759 718.485 587.558 718.522 587.355 718.52H586.658C586.519 718.518 586.381 718.488 586.253 718.432C586.125 718.377 586.009 718.297 585.912 718.196C585.815 718.096 585.738 717.978 585.687 717.848C585.636 717.718 585.611 717.58 585.613 717.44L585.77 687.502C585.772 687.303 585.815 687.106 585.895 686.924C585.976 686.742 586.093 686.577 586.239 686.441C586.385 686.304 586.558 686.198 586.747 686.129C586.935 686.06 587.136 686.029 587.337 686.039C588.266 686.085 588.98 686.451 589.48 687.136C591.651 690.05 595.221 695.978 600.19 704.918C600.225 704.987 600.347 705.069 600.556 705.162C600.649 705.208 600.806 705.231 601.026 705.231Z" fill="white"/>
<path d="M650.662 709.777C646.819 709.754 644.752 709.742 644.461 709.742C644.092 709.701 643.719 709.78 643.396 709.968C643.073 710.156 642.818 710.443 642.668 710.787L639.846 717.492C639.719 717.785 639.509 718.035 639.243 718.208C638.976 718.382 638.665 718.472 638.348 718.467H637.617C637.434 718.463 637.255 718.415 637.095 718.327C636.935 718.239 636.799 718.113 636.698 717.961C636.597 717.809 636.534 717.634 636.515 717.453C636.496 717.271 636.522 717.087 636.589 716.917C642.313 702.799 646.435 692.808 648.955 686.944C649.234 686.317 649.849 686.004 650.801 686.004C651.741 686.016 652.345 686.335 652.612 686.962C655.074 692.86 659.085 702.897 664.647 717.074C664.715 717.247 664.74 717.433 664.72 717.618C664.699 717.802 664.633 717.979 664.528 718.132C664.423 718.285 664.282 718.41 664.118 718.496C663.953 718.582 663.77 718.626 663.584 718.624L662.853 718.607C662.537 718.606 662.229 718.512 661.965 718.335C661.702 718.159 661.496 717.908 661.373 717.614L658.638 710.891C658.494 710.544 658.244 710.252 657.925 710.058C657.605 709.863 657.232 709.777 656.862 709.812C656.56 709.812 654.493 709.8 650.662 709.777ZM644.914 705.475C644.863 705.607 644.845 705.75 644.862 705.891C644.879 706.032 644.93 706.167 645.01 706.284C645.091 706.4 645.199 706.496 645.325 706.561C645.451 706.627 645.591 706.66 645.733 706.659L655.625 706.624C655.766 706.623 655.904 706.587 656.027 706.52C656.151 706.454 656.257 706.358 656.335 706.242C656.414 706.125 656.463 705.992 656.479 705.852C656.495 705.713 656.477 705.571 656.426 705.44L651.445 692.866C651.381 692.703 651.27 692.564 651.125 692.466C650.981 692.368 650.81 692.315 650.635 692.315C650.461 692.315 650.29 692.368 650.146 692.466C650.001 692.564 649.89 692.703 649.826 692.866L644.914 705.475Z" fill="white"/>
<path d="M684.571 717.317V687.344C684.571 687.056 684.685 686.78 684.887 686.575C685.089 686.369 685.363 686.252 685.651 686.247C691.77 686.108 695.95 686.108 698.191 686.247C706.237 686.735 709.668 696.488 704.878 702.27C703.712 703.681 702.318 703.994 700.995 704.969C700.783 705.122 700.638 705.35 700.586 705.608C700.535 705.865 700.581 706.135 700.716 706.363L707.021 717.3C707.104 717.446 707.147 717.612 707.147 717.78C707.147 717.949 707.103 718.114 707.02 718.259C706.937 718.403 706.818 718.523 706.674 718.606C706.531 718.688 706.368 718.73 706.202 718.728H705.383C704.966 718.729 704.557 718.618 704.195 718.407C703.834 718.195 703.535 717.892 703.328 717.526L697.32 707.129C697.113 706.774 696.816 706.48 696.459 706.275C696.101 706.071 695.695 705.963 695.282 705.962H689.343C689.19 705.962 689.038 705.992 688.897 706.05C688.755 706.107 688.627 706.192 688.518 706.299C688.41 706.405 688.324 706.532 688.265 706.672C688.207 706.811 688.176 706.961 688.176 707.112V717.039C688.176 717.459 688.009 717.862 687.712 718.159C687.415 718.457 687.012 718.624 686.592 718.624H685.86C685.518 718.624 685.191 718.486 684.949 718.241C684.707 717.996 684.571 717.664 684.571 717.317ZM687.967 690.096L688.107 702.183C688.111 702.378 688.192 702.564 688.332 702.701C688.472 702.838 688.66 702.914 688.856 702.914L696.484 702.845C697.466 702.834 698.436 702.656 699.34 702.319C700.243 701.982 701.062 701.495 701.75 700.883C702.437 700.272 702.98 699.549 703.346 698.756C703.713 697.963 703.896 697.115 703.886 696.261V695.669C703.865 693.948 703.059 692.305 701.645 691.104C700.231 689.902 698.325 689.239 696.345 689.26L688.716 689.33C688.616 689.33 688.518 689.35 688.426 689.388C688.334 689.427 688.25 689.484 688.181 689.555C688.111 689.627 688.056 689.711 688.019 689.804C687.983 689.897 687.965 689.996 687.967 690.096Z" fill="white"/>
<path d="M748.541 686.163H751.38C751.493 686.163 751.604 686.195 751.699 686.256C751.794 686.317 751.87 686.403 751.918 686.506C751.966 686.608 751.983 686.723 751.968 686.835C751.953 686.947 751.906 687.052 751.832 687.138L740.46 700.2C740.373 700.301 740.322 700.427 740.316 700.56C740.309 700.693 740.348 700.824 740.425 700.932L751.641 717.669C751.701 717.758 751.735 717.861 751.741 717.968C751.747 718.075 751.723 718.182 751.673 718.276C751.623 718.371 751.549 718.45 751.457 718.506C751.365 718.561 751.26 718.591 751.153 718.592H748.75C748.653 718.591 748.559 718.567 748.474 718.522C748.389 718.476 748.316 718.411 748.262 718.331L738.405 703.631C738.356 703.56 738.292 703.5 738.217 703.455C738.142 703.411 738.059 703.384 737.972 703.376C737.886 703.368 737.799 703.378 737.717 703.407C737.635 703.437 737.561 703.483 737.499 703.544L732.292 708.769C732.181 708.88 732.118 709.03 732.118 709.187V717.773C732.118 717.93 732.055 718.081 731.944 718.192C731.833 718.303 731.682 718.365 731.525 718.365H729.383C729.226 718.365 729.076 718.303 728.964 718.192C728.853 718.081 728.791 717.93 728.791 717.773V686.807C728.791 686.65 728.853 686.5 728.964 686.389C729.076 686.278 729.226 686.215 729.383 686.215H731.63C731.787 686.215 731.937 686.278 732.048 686.389C732.159 686.5 732.222 686.65 732.222 686.807V703.022C732.222 703.143 732.259 703.262 732.328 703.362C732.398 703.462 732.496 703.538 732.61 703.579C732.724 703.621 732.849 703.627 732.966 703.596C733.084 703.565 733.189 703.498 733.267 703.405L748.105 686.372C748.159 686.309 748.226 686.257 748.301 686.221C748.376 686.185 748.458 686.165 748.541 686.163Z" fill="white"/>
<path d="M773.045 702.358C772.964 693.046 772.923 687.961 772.923 687.102C772.923 686.86 773.018 686.628 773.188 686.455C773.357 686.282 773.587 686.183 773.829 686.179L792.865 685.83C793.027 685.828 793.188 685.858 793.339 685.918C793.49 685.978 793.628 686.067 793.744 686.18C793.861 686.293 793.954 686.428 794.018 686.577C794.082 686.727 794.117 686.887 794.119 687.049L794.136 687.589C794.141 687.767 794.11 687.944 794.046 688.109C793.982 688.275 793.885 688.426 793.762 688.554C793.639 688.682 793.492 688.784 793.329 688.855C793.166 688.925 792.99 688.963 792.813 688.965L777.33 689.244C777.186 689.246 777.043 689.277 776.911 689.334C776.779 689.391 776.659 689.474 776.559 689.577C776.459 689.681 776.38 689.803 776.327 689.937C776.274 690.071 776.248 690.214 776.25 690.358L776.424 699.78C776.426 699.935 776.459 700.088 776.522 700.229C776.585 700.371 776.675 700.497 776.788 700.602C776.9 700.706 777.033 700.786 777.177 700.837C777.321 700.887 777.474 700.907 777.626 700.895C778.497 700.837 782.398 700.744 789.329 700.616C789.875 700.605 790.276 700.75 790.531 701.052C790.821 701.377 790.966 701.743 790.966 702.149C790.978 702.66 790.839 703.078 790.548 703.403C790.293 703.705 789.892 703.856 789.347 703.856C782.415 703.833 778.514 703.804 777.643 703.769C777.491 703.759 777.339 703.781 777.196 703.834C777.052 703.887 776.921 703.969 776.81 704.075C776.699 704.181 776.611 704.309 776.55 704.451C776.49 704.593 776.459 704.746 776.459 704.901L776.441 714.323C776.441 714.467 776.47 714.61 776.525 714.743C776.58 714.876 776.661 714.997 776.763 715.099C776.865 715.201 776.986 715.282 777.119 715.337C777.252 715.392 777.395 715.42 777.539 715.42L793.022 715.455C793.377 715.455 793.718 715.596 793.97 715.848C794.221 716.099 794.363 716.44 794.363 716.796V717.336C794.363 717.664 794.232 717.978 794 718.21C793.768 718.442 793.454 718.572 793.126 718.572L774.09 718.538C773.969 718.538 773.849 718.514 773.737 718.467C773.625 718.421 773.523 718.353 773.438 718.267C773.352 718.181 773.284 718.08 773.238 717.968C773.191 717.856 773.167 717.736 773.167 717.615C773.156 716.767 773.115 711.681 773.045 702.358Z" fill="white"/>
<path d="M893.652 703.354C891.422 700.184 889.065 696.927 886.581 693.583C886.532 693.519 886.471 693.466 886.401 693.426C886.332 693.386 886.255 693.362 886.176 693.353C886.097 693.345 886.018 693.354 885.944 693.378C885.87 693.403 885.802 693.443 885.745 693.496C885.501 693.74 885.379 694.054 885.379 694.437C885.542 702.495 885.594 710.082 885.536 717.2C885.536 717.546 885.398 717.878 885.153 718.123C884.908 718.368 884.576 718.506 884.229 718.506H883.359C883.035 718.506 882.725 718.375 882.497 718.144C882.268 717.912 882.139 717.597 882.139 717.269L882.035 688.097C882.031 687.67 882.162 687.252 882.409 686.902C882.656 686.553 883.007 686.291 883.412 686.152C883.816 686.013 884.254 686.006 884.664 686.13C885.073 686.254 885.433 686.503 885.692 686.843C886.389 687.772 889.866 692.626 896.125 701.403C898.377 704.55 900.746 707.795 903.23 711.139C903.279 711.203 903.34 711.257 903.409 711.296C903.479 711.336 903.556 711.361 903.635 711.369C903.714 711.377 903.793 711.369 903.867 711.344C903.941 711.319 904.009 711.279 904.066 711.226C904.31 710.982 904.426 710.669 904.415 710.285C904.264 702.228 904.217 694.64 904.275 687.523C904.28 687.179 904.42 686.851 904.664 686.61C904.908 686.369 905.238 686.234 905.582 686.234L906.452 686.216C906.614 686.216 906.774 686.249 906.923 686.312C907.072 686.375 907.207 686.468 907.32 686.585C907.434 686.701 907.523 686.84 907.584 686.992C907.644 687.144 907.674 687.307 907.671 687.47L907.776 716.625C907.78 717.053 907.649 717.471 907.402 717.82C907.155 718.169 906.804 718.431 906.399 718.57C905.995 718.709 905.557 718.717 905.147 718.593C904.738 718.468 904.378 718.219 904.119 717.879C903.422 716.95 899.933 712.108 893.652 703.354Z" fill="white"/>
<path d="M823.605 686.196C827.274 686.172 830.774 686.248 834.107 686.422C834.479 686.444 834.829 686.606 835.085 686.875C835.341 687.144 835.483 687.499 835.482 687.867V688.425C835.483 688.634 835.4 688.835 835.254 688.985C835.107 689.135 834.908 689.221 834.699 689.226L825.956 689.435C825.851 689.437 825.747 689.462 825.653 689.51C825.559 689.558 825.477 689.626 825.414 689.71C825.35 689.794 825.306 689.891 825.286 689.994C825.265 690.097 825.268 690.204 825.294 690.306C825.306 690.341 825.247 697.893 825.12 712.964C825.097 716.552 824.591 718.346 823.605 718.346C822.618 718.346 822.113 716.552 822.089 712.964C821.962 697.893 821.904 690.341 821.915 690.306C821.942 690.204 821.945 690.097 821.924 689.994C821.903 689.891 821.859 689.794 821.795 689.71C821.732 689.626 821.65 689.558 821.556 689.51C821.462 689.462 821.359 689.437 821.253 689.435L812.511 689.226C812.298 689.226 812.094 689.141 811.944 688.991C811.794 688.841 811.709 688.637 811.709 688.425V687.867C811.709 687.496 811.854 687.138 812.113 686.869C812.373 686.6 812.727 686.44 813.103 686.422C816.424 686.248 819.924 686.172 823.605 686.196Z" fill="white"/>
<path d="M857.182 686.196H856.659C855.976 686.196 855.423 686.75 855.423 687.433V717.179C855.423 717.862 855.976 718.416 856.659 718.416H857.182C857.865 718.416 858.418 717.862 858.418 717.179V687.433C858.418 686.75 857.865 686.196 857.182 686.196Z" fill="white"/>
<path d="M328.25 138.672V207.396C328.25 207.724 328.12 208.038 327.888 208.27C327.656 208.502 327.342 208.632 327.014 208.632H240.438C240.18 208.632 239.932 208.735 239.749 208.918C239.566 209.101 239.463 209.349 239.463 209.607V300.154C239.463 300.463 239.34 300.76 239.121 300.979C238.903 301.198 238.606 301.32 238.296 301.32H150.711C150.318 301.32 149.942 301.165 149.664 300.887C149.386 300.609 149.23 300.233 149.23 299.84V210.112C149.23 209.794 149.357 209.488 149.582 209.263C149.808 209.037 150.113 208.911 150.432 208.911H238.07C238.449 208.911 238.812 208.76 239.08 208.492C239.347 208.225 239.498 207.861 239.498 207.483V15.2441C239.498 14.7449 239.692 14.2654 240.04 13.9076C240.389 13.5497 240.862 13.3419 241.361 13.3283C256.316 13.0148 268.78 12.9219 278.754 13.0496C301.906 13.3515 322.753 19.5052 341.295 31.5107C348.192 35.9692 357.881 44.683 370.362 57.6522C385.41 73.2686 408.805 97.0938 440.549 129.128C440.663 129.241 440.798 129.331 440.947 129.392C441.096 129.453 441.257 129.483 441.418 129.481C441.58 129.48 441.741 129.446 441.89 129.382C442.04 129.319 442.176 129.226 442.291 129.11C497.058 73.4254 533.812 36.1665 552.552 17.334C560.61 9.22968 569.956 3.91779 580.592 1.39826C606.054 -4.6277 630.872 9.30518 639.354 33.9141C641.281 39.5105 642.198 48.6307 642.105 61.2747C642.012 74.0349 642.012 144.947 642.105 274.012C642.105 274.28 642.212 274.537 642.401 274.726C642.591 274.916 642.848 275.022 643.115 275.022C657.942 274.987 706.44 274.935 788.609 274.865C798.554 274.865 807.662 271.452 814.96 264.468C827.081 252.881 830.721 238.553 825.88 221.485C821.247 205.131 805.329 192.958 788.644 192.905C758.665 192.812 722.48 192.772 680.09 192.784C679.873 192.784 679.664 192.697 679.511 192.544C679.357 192.39 679.271 192.182 679.271 191.965V104.414C679.271 104.006 679.432 103.615 679.719 103.324C680.006 103.034 680.396 102.869 680.804 102.864C707.009 102.632 743.525 102.62 790.351 102.829C827.778 102.986 862.697 121.134 886.017 148.982C927.816 198.896 926.997 273.298 883.335 321.993C870.482 336.344 854.773 347.479 836.207 355.397C820.307 362.172 800.174 364.384 779.954 364.175C774.903 364.117 729.128 364.134 642.628 364.227C642.478 364.232 642.337 364.294 642.233 364.402C642.128 364.509 642.07 364.653 642.07 364.802V451.43C642.07 451.827 641.911 452.208 641.627 452.489C641.342 452.77 640.957 452.927 640.555 452.927H554.642C554.505 452.927 554.369 452.901 554.242 452.849C554.115 452.797 554 452.722 553.903 452.626C553.806 452.531 553.729 452.418 553.676 452.293C553.624 452.168 553.597 452.035 553.597 451.9V138.707C553.594 138.635 553.571 138.566 553.53 138.507C553.488 138.449 553.431 138.404 553.364 138.378C553.297 138.352 553.224 138.346 553.154 138.361C553.084 138.376 553.02 138.412 552.97 138.463L442.117 249.316C441.917 249.514 441.648 249.625 441.368 249.625C441.087 249.625 440.818 249.514 440.619 249.316L329.469 138.167C329.37 138.067 329.242 137.999 329.104 137.971C328.965 137.944 328.822 137.958 328.691 138.012C328.56 138.066 328.449 138.157 328.371 138.275C328.292 138.392 328.25 138.53 328.25 138.672Z" fill="white"/>
</svg>
