<svg width="682" height="173" viewBox="0 0 682 173" fill="none" xmlns="http://www.w3.org/2000/svg">
<path d="M68.3784 52.967V79.2167C68.3784 79.342 68.3286 79.4621 68.24 79.5507C68.1514 79.6393 68.0313 79.689 67.906 79.689H34.8378C34.739 79.689 34.6442 79.7283 34.5744 79.7982C34.5045 79.868 34.4652 79.9628 34.4652 80.0616V114.647C34.4652 114.765 34.4183 114.878 34.3347 114.962C34.2511 115.045 34.1377 115.092 34.0195 115.092H0.565444C0.41548 115.092 0.271656 115.033 0.165616 114.927C0.0595751 114.821 0 114.677 0 114.527V80.2545C0 80.1328 0.0483533 80.016 0.134433 79.9299C0.220513 79.8439 0.33727 79.7955 0.459006 79.7955H33.9331C34.0777 79.7955 34.2165 79.738 34.3188 79.6357C34.4211 79.5334 34.4785 79.3947 34.4785 79.25V5.82262C34.4785 5.63195 34.5528 5.4488 34.6858 5.31213C34.8187 5.17546 34.9997 5.09607 35.1903 5.09087C40.9024 4.97113 45.6632 4.93564 49.4727 4.98443C58.3157 5.09973 66.2785 7.45019 73.3609 12.0358C75.9952 13.7388 79.696 17.0671 84.4635 22.0208C90.211 27.9856 99.1472 37.0859 111.272 49.3216C111.315 49.365 111.367 49.3993 111.424 49.4225C111.481 49.4457 111.542 49.4573 111.604 49.4566C111.666 49.456 111.727 49.4432 111.784 49.4189C111.841 49.3946 111.893 49.3592 111.937 49.3149C132.856 28.0455 146.895 13.8142 154.053 6.62087C157.13 3.52536 160.7 1.49644 164.763 0.534079C174.488 -1.7676 183.968 3.5542 187.207 12.9538C187.943 15.0914 188.294 18.575 188.258 23.4045C188.223 28.2783 188.223 55.3641 188.258 104.662C188.258 104.764 188.299 104.862 188.371 104.934C188.444 105.007 188.542 105.047 188.644 105.047C194.307 105.034 212.832 105.014 244.217 104.988C248.015 104.988 251.495 103.684 254.282 101.016C258.912 96.5902 260.302 91.1176 258.453 84.5984C256.683 78.352 250.603 73.702 244.23 73.6821C232.78 73.6466 218.958 73.6311 202.767 73.6355C202.684 73.6355 202.604 73.6026 202.546 73.544C202.487 73.4853 202.454 73.4058 202.454 73.3229V39.8821C202.454 39.7262 202.516 39.5766 202.625 39.4658C202.735 39.3549 202.884 39.2918 203.04 39.29C213.049 39.2013 226.997 39.1969 244.882 39.2767C259.178 39.3366 272.516 46.2682 281.423 56.9051C297.388 75.9705 297.076 104.389 280.398 122.988C275.489 128.47 269.489 132.723 262.398 135.747C256.324 138.335 248.634 139.18 240.911 139.1C238.982 139.078 221.497 139.085 188.458 139.12C188.401 139.122 188.347 139.146 188.307 139.187C188.267 139.228 188.245 139.283 188.245 139.34V172.428C188.245 172.58 188.184 172.725 188.076 172.832C187.967 172.94 187.82 173 187.666 173H154.851C154.798 173 154.746 172.99 154.698 172.97C154.65 172.95 154.606 172.922 154.569 172.885C154.531 172.849 154.502 172.805 154.482 172.758C154.462 172.71 154.452 172.659 154.452 172.607V52.9803C154.451 52.953 154.442 52.9265 154.426 52.9041C154.41 52.8818 154.388 52.8646 154.363 52.8547C154.337 52.8448 154.309 52.8426 154.283 52.8483C154.256 52.8541 154.231 52.8676 154.212 52.8872L111.871 95.2287C111.795 95.3042 111.692 95.3467 111.585 95.3467C111.477 95.3467 111.375 95.3042 111.299 95.2287L68.844 52.7741C68.8059 52.7359 68.7573 52.7099 68.7043 52.6994C68.6514 52.6889 68.5965 52.6943 68.5467 52.7149C68.4968 52.7356 68.4542 52.7706 68.4243 52.8154C68.3943 52.8603 68.3783 52.9131 68.3784 52.967Z" fill="white"/>
<path d="M335.113 25.7197H335.087C334.826 25.7197 334.614 25.9312 334.614 26.192V153.449C334.614 153.71 334.826 153.922 335.087 153.922H335.113C335.374 153.922 335.585 153.71 335.585 153.449V26.192C335.585 25.9312 335.374 25.7197 335.113 25.7197Z" fill="white"/>
<path d="M390.254 44.5788C390.44 44.5788 390.542 44.5433 390.56 44.4724C390.573 44.4147 394.283 38.3057 401.689 26.1455C401.752 26.042 401.84 25.9564 401.944 25.897C402.049 25.8376 402.167 25.8063 402.287 25.8062H411.208C411.307 25.8062 411.402 25.8454 411.472 25.9153C411.541 25.9852 411.581 26.0799 411.581 26.1787V65.5932C411.581 65.7291 411.527 65.8594 411.431 65.9554C411.335 66.0515 411.204 66.1055 411.068 66.1055H402.933C402.822 66.1055 402.715 66.0613 402.636 65.9827C402.558 65.9041 402.514 65.7975 402.514 65.6864V41.1795C402.515 41.1197 402.496 41.0612 402.46 41.0131C402.425 40.9649 402.374 40.9298 402.317 40.9132C402.259 40.8965 402.198 40.8993 402.142 40.9209C402.086 40.9426 402.039 40.9821 402.008 41.0332L392.828 55.6016C392.76 55.7087 392.668 55.7976 392.559 55.8602C392.45 55.9229 392.328 55.9574 392.203 55.9608C392.087 55.9608 391.431 55.9608 390.234 55.9608C389.036 55.9564 388.38 55.9519 388.265 55.9475C388.14 55.9441 388.017 55.9096 387.908 55.847C387.799 55.7843 387.707 55.6954 387.639 55.5883L378.519 40.9866C378.488 40.9355 378.441 40.8961 378.385 40.8744C378.329 40.8527 378.268 40.85 378.21 40.8666C378.153 40.8833 378.102 40.9184 378.067 40.9665C378.031 41.0146 378.013 41.0731 378.013 41.1329L377.914 65.6398C377.912 65.7498 377.867 65.8547 377.789 65.9318C377.71 66.009 377.605 66.0522 377.495 66.0522L369.359 66.019C369.223 66.019 369.093 65.965 368.997 65.8689C368.901 65.7729 368.847 65.6426 368.847 65.5068L369.006 26.0923C369.006 25.9935 369.046 25.8987 369.115 25.8288C369.185 25.759 369.28 25.7197 369.379 25.7197L378.3 25.7596C378.42 25.7597 378.538 25.791 378.643 25.8504C378.747 25.9098 378.835 25.9954 378.898 26.0989C386.256 38.2902 389.941 44.4147 389.954 44.4724C389.972 44.5433 390.072 44.5788 390.254 44.5788Z" fill="white"/>
<path d="M433.619 65.6531C433.619 65.7871 433.566 65.9157 433.469 66.0105C433.373 66.1054 433.243 66.1586 433.107 66.1586H425.051C424.944 66.1586 424.841 66.1159 424.765 66.0398C424.688 65.9637 424.646 65.8605 424.646 65.7528V25.9724C424.646 25.9142 424.669 25.8584 424.71 25.8172C424.751 25.7761 424.807 25.7529 424.865 25.7529C433.615 25.784 439.524 25.8062 442.593 25.8195C447.316 25.8461 453.297 29.9771 454.388 34.7734C454.92 37.1016 455.026 39.3745 454.707 41.5919C453.842 47.6255 448.241 51.3973 442.234 51.8363C439.675 52.027 437.008 52.0581 434.232 51.9295C434.152 51.9259 434.073 51.9385 433.999 51.9667C433.925 51.9948 433.858 52.0379 433.8 52.0932C433.743 52.1485 433.698 52.215 433.667 52.2886C433.635 52.3623 433.619 52.4415 433.619 52.5215V65.6531ZM433.719 33.9019L433.666 43.6807C433.665 43.7319 433.675 43.7828 433.694 43.8304C433.713 43.878 433.741 43.9213 433.777 43.9578C433.813 43.9944 433.855 44.0234 433.903 44.0432C433.95 44.063 434.001 44.0732 434.052 44.0732L440.571 44.1065C441.251 44.1102 441.925 43.9878 442.554 43.7464C443.183 43.505 443.756 43.1493 444.239 42.6996C444.722 42.2499 445.106 41.715 445.369 41.1254C445.633 40.5359 445.77 39.9032 445.773 39.2636V38.452C445.78 37.1609 445.241 35.9197 444.276 35.0016C443.31 34.0834 441.997 33.5635 440.624 33.556L434.105 33.5227C434.004 33.5227 433.907 33.5625 433.835 33.6334C433.762 33.7043 433.721 33.8007 433.719 33.9019Z" fill="white"/>
<path d="M373.397 100.597C373.49 115.903 391.085 122.05 400.877 110.582C400.915 110.537 400.962 110.5 401.015 110.473C401.067 110.447 401.125 110.431 401.183 110.427C401.242 110.422 401.301 110.43 401.357 110.448C401.413 110.467 401.465 110.496 401.509 110.535L404.336 112.996C404.433 113.082 404.493 113.202 404.503 113.332C404.513 113.461 404.472 113.589 404.39 113.688C397.717 121.731 386.695 123.56 377.954 118.159C371.72 114.314 368.534 108.021 368.487 100.63C368.448 93.2393 371.567 86.9064 377.754 82.9882C386.435 77.4868 397.478 79.1898 404.237 87.1591C404.32 87.258 404.362 87.3854 404.353 87.5145C404.344 87.6435 404.286 87.7642 404.19 87.851L401.396 90.3456C401.352 90.3847 401.301 90.4147 401.245 90.4339C401.189 90.4531 401.131 90.4611 401.072 90.4573C401.013 90.4536 400.956 90.4383 400.903 90.4123C400.85 90.3862 400.803 90.35 400.764 90.3057C390.839 78.9436 373.31 85.2965 373.397 100.597Z" fill="white"/>
<path d="M448.514 120.667H443.032C442.975 120.667 442.92 120.652 442.871 120.624C442.822 120.596 442.781 120.556 442.753 120.507L433.952 105.254C433.897 105.16 433.819 105.083 433.724 105.029C433.63 104.976 433.522 104.948 433.413 104.948H424.659C424.587 104.948 424.516 104.962 424.45 104.989C424.384 105.016 424.324 105.056 424.273 105.106C424.223 105.156 424.182 105.215 424.155 105.28C424.128 105.346 424.113 105.416 424.113 105.487V120.088C424.113 120.224 424.059 120.354 423.963 120.451C423.867 120.547 423.737 120.601 423.601 120.601H419.63C419.506 120.601 419.388 120.552 419.301 120.464C419.213 120.377 419.164 120.258 419.164 120.135V80.9466C419.164 80.8231 419.213 80.7046 419.301 80.6173C419.388 80.53 419.506 80.4809 419.63 80.4809C424.526 80.4809 429.528 80.4543 434.637 80.4011C436.172 80.3834 437.793 80.7004 439.5 81.3524C444.086 83.0997 446.678 86.0932 447.277 90.3329C448.175 96.7523 445.747 101.502 439.62 103.917C439.522 103.956 439.433 104.016 439.361 104.092C439.288 104.169 439.233 104.26 439.199 104.36C439.165 104.46 439.152 104.566 439.163 104.671C439.174 104.776 439.207 104.877 439.261 104.968L448.554 120.601C448.557 120.607 448.559 120.615 448.558 120.623C448.558 120.63 448.556 120.638 448.552 120.645C448.548 120.651 448.542 120.657 448.536 120.661C448.529 120.665 448.522 120.667 448.514 120.667ZM424.094 85.4368V99.7392C424.094 99.8856 424.152 100.026 424.255 100.13C424.359 100.233 424.499 100.291 424.646 100.291H434.125C436.316 100.291 438.418 99.5014 439.967 98.0954C441.517 96.6895 442.387 94.7826 442.387 92.7942V92.3818C442.387 90.3934 441.517 88.4865 439.967 87.0806C438.418 85.6746 436.316 84.8847 434.125 84.8847H424.646C424.499 84.8847 424.359 84.9429 424.255 85.0464C424.152 85.15 424.094 85.2904 424.094 85.4368Z" fill="white"/>
<path d="M486.132 100.438C486.132 101.303 486.123 101.975 486.106 102.454C486.104 102.527 486.073 102.596 486.02 102.647C485.966 102.698 485.894 102.727 485.82 102.727H468.87C468.81 102.727 468.752 102.739 468.697 102.761C468.642 102.784 468.592 102.817 468.55 102.859C468.508 102.901 468.475 102.951 468.452 103.006C468.429 103.061 468.417 103.12 468.417 103.179V115.566C468.417 115.693 468.468 115.815 468.558 115.904C468.648 115.994 468.769 116.045 468.896 116.045H489.379C489.477 116.045 489.572 116.084 489.642 116.154C489.712 116.224 489.751 116.318 489.751 116.417V120.182C489.751 120.27 489.716 120.355 489.654 120.417C489.591 120.48 489.507 120.515 489.419 120.515H463.927C463.811 120.515 463.699 120.469 463.617 120.388C463.534 120.307 463.488 120.197 463.488 120.083C463.484 119.714 463.473 113.177 463.455 100.472C463.437 87.7615 463.43 81.2223 463.435 80.8543C463.435 80.7407 463.48 80.6317 463.561 80.5508C463.642 80.4699 463.752 80.4236 463.867 80.4219L489.359 80.3487C489.403 80.3478 489.447 80.3558 489.488 80.3721C489.529 80.3884 489.567 80.4128 489.598 80.4437C489.63 80.4747 489.655 80.5117 489.672 80.5525C489.689 80.5933 489.698 80.6371 489.698 80.6813L489.705 84.4465C489.705 84.5453 489.665 84.64 489.595 84.7099C489.526 84.7797 489.431 84.819 489.332 84.819L468.85 84.8789C468.724 84.8806 468.604 84.9319 468.515 85.0215C468.427 85.1111 468.377 85.2319 468.377 85.3578L468.411 97.7443C468.411 97.8643 468.458 97.9793 468.543 98.0642C468.628 98.149 468.743 98.1966 468.863 98.1966L485.813 98.1501C485.888 98.15 485.96 98.1785 486.013 98.2295C486.066 98.2804 486.097 98.3498 486.099 98.4228C486.117 98.9018 486.128 99.5737 486.132 100.438Z" fill="white"/>
<path d="M519.467 80.4551C520.3 80.4595 521.063 80.4817 521.755 80.5216C521.866 80.528 521.974 80.5665 522.065 80.6325C522.155 80.6985 522.226 80.7893 522.267 80.8941L537.654 119.989C537.683 120.064 537.694 120.145 537.685 120.224C537.676 120.304 537.647 120.38 537.602 120.447C537.557 120.513 537.496 120.567 537.425 120.604C537.354 120.642 537.275 120.661 537.195 120.661H533.37C533.164 120.661 532.963 120.6 532.794 120.484C532.624 120.369 532.493 120.206 532.419 120.016L528.753 110.703C528.722 110.622 528.667 110.553 528.596 110.504C528.525 110.456 528.44 110.43 528.354 110.43C527.977 110.43 524.984 110.421 519.374 110.403C513.768 110.386 510.777 110.377 510.4 110.377C510.313 110.376 510.229 110.402 510.158 110.451C510.086 110.5 510.032 110.569 510.001 110.65L506.282 119.943C506.206 120.133 506.073 120.295 505.903 120.409C505.732 120.523 505.53 120.583 505.324 120.581L501.499 120.555C501.419 120.554 501.341 120.534 501.271 120.496C501.201 120.458 501.141 120.404 501.097 120.337C501.052 120.271 501.024 120.195 501.016 120.116C501.007 120.037 501.018 119.957 501.047 119.883L516.659 80.8808C516.701 80.776 516.771 80.6852 516.862 80.6192C516.953 80.5532 517.06 80.5147 517.172 80.5083C517.863 80.4728 518.628 80.4551 519.467 80.4551ZM512.222 105.261C512.202 105.316 512.195 105.375 512.202 105.432C512.21 105.49 512.231 105.546 512.264 105.593C512.298 105.641 512.342 105.68 512.394 105.707C512.446 105.734 512.503 105.747 512.562 105.747H526.345C526.403 105.747 526.461 105.734 526.513 105.707C526.565 105.68 526.609 105.641 526.643 105.593C526.676 105.546 526.697 105.49 526.704 105.432C526.712 105.375 526.705 105.316 526.684 105.261L519.786 87.3401C519.759 87.274 519.713 87.2175 519.654 87.1777C519.595 87.1379 519.525 87.1166 519.453 87.1166C519.382 87.1166 519.312 87.1379 519.253 87.1777C519.194 87.2175 519.148 87.274 519.121 87.3401L512.222 105.261Z" fill="white"/>
<path d="M557.877 80.4347C562.702 80.4302 567.485 80.4458 572.226 80.4812C572.354 80.4812 572.478 80.5324 572.569 80.6235C572.66 80.7146 572.711 80.8381 572.711 80.9669V84.3395C572.711 84.4983 572.649 84.6506 572.538 84.7629C572.427 84.8752 572.276 84.9382 572.119 84.9382H560.644C560.543 84.9382 560.447 84.9782 560.376 85.0493C560.305 85.1204 560.265 85.2169 560.265 85.3174V120.182C560.265 120.24 560.253 120.298 560.23 120.352C560.207 120.406 560.174 120.454 560.131 120.495C560.089 120.535 560.039 120.567 559.984 120.587C559.929 120.608 559.871 120.617 559.813 120.614C559.626 120.61 558.963 120.605 557.823 120.601C556.684 120.601 556.021 120.603 555.834 120.608C555.776 120.61 555.718 120.601 555.663 120.581C555.608 120.56 555.558 120.529 555.516 120.488C555.473 120.448 555.44 120.399 555.417 120.345C555.394 120.292 555.382 120.234 555.382 120.175L555.469 85.3108C555.469 85.2113 555.43 85.1159 555.36 85.045C555.29 84.974 555.195 84.9333 555.096 84.9316L543.621 84.905C543.543 84.905 543.465 84.8893 543.393 84.8588C543.321 84.8283 543.255 84.7836 543.2 84.7273C543.145 84.671 543.101 84.6042 543.072 84.5308C543.043 84.4574 543.028 84.3788 543.029 84.2996L543.036 80.9269C543.036 80.7981 543.087 80.6746 543.178 80.5836C543.269 80.4925 543.392 80.4413 543.521 80.4413C548.262 80.4191 553.047 80.4169 557.877 80.4347Z" fill="white"/>
<path d="M591.504 80.4941H587.446C587.214 80.4941 587.027 80.6818 587.027 80.9132V120.161C587.027 120.393 587.214 120.581 587.446 120.581H591.504C591.735 120.581 591.923 120.393 591.923 120.161V80.9132C591.923 80.6818 591.735 80.4941 591.504 80.4941Z" fill="white"/>
<path d="M623.441 113.695C623.468 113.695 623.492 113.693 623.514 113.688C623.525 113.689 623.538 113.678 623.553 113.659C623.567 113.64 623.582 113.613 623.594 113.582L635.954 80.7931C635.984 80.7149 636.036 80.6475 636.105 80.6C636.174 80.5524 636.256 80.527 636.34 80.527H640.77C640.842 80.5276 640.913 80.5457 640.976 80.5796C641.04 80.6135 641.094 80.6623 641.135 80.7218C641.175 80.7813 641.201 80.8497 641.209 80.9212C641.218 80.9927 641.208 81.0652 641.183 81.1324L626.168 120.241C626.125 120.353 626.049 120.45 625.95 120.519C625.852 120.588 625.736 120.625 625.616 120.627C625.554 120.627 624.825 120.627 623.428 120.627C622.035 120.622 621.308 120.62 621.246 120.62C621.126 120.619 621.01 120.581 620.912 120.512C620.813 120.444 620.737 120.347 620.694 120.234L605.779 81.0858C605.754 81.0186 605.744 80.9461 605.753 80.8746C605.761 80.8031 605.787 80.7347 605.827 80.6752C605.868 80.6157 605.922 80.5669 605.986 80.533C606.049 80.4991 606.12 80.4811 606.192 80.4805L610.622 80.4938C610.706 80.4937 610.788 80.5192 610.857 80.5667C610.925 80.6142 610.978 80.6816 611.008 80.7599L623.281 113.582C623.294 113.613 623.308 113.64 623.323 113.659C623.337 113.678 623.351 113.689 623.361 113.688C623.388 113.693 623.414 113.695 623.441 113.695Z" fill="white"/>
<path d="M680.989 84.8847H660.501C660.389 84.8847 660.283 84.9288 660.204 85.0074C660.126 85.086 660.082 85.1926 660.082 85.3038V97.6104C660.082 97.7216 660.126 97.8282 660.204 97.9068C660.283 97.9854 660.389 98.0295 660.501 98.0295H677.537C677.648 98.0295 677.755 98.0737 677.833 98.1523C677.912 98.2309 677.956 98.3374 677.956 98.4486V102.18C677.956 102.292 677.912 102.398 677.833 102.477C677.755 102.555 677.648 102.6 677.537 102.6H660.574C660.519 102.6 660.464 102.61 660.413 102.631C660.363 102.653 660.316 102.683 660.277 102.722C660.239 102.761 660.208 102.807 660.187 102.858C660.166 102.909 660.155 102.964 660.155 103.019V115.558C660.155 115.613 660.166 115.668 660.187 115.719C660.208 115.769 660.239 115.816 660.277 115.854C660.316 115.893 660.363 115.924 660.413 115.945C660.464 115.966 660.519 115.977 660.574 115.977H681.455C681.566 115.977 681.673 116.021 681.752 116.1C681.83 116.179 681.874 116.285 681.874 116.396V120.235C681.874 120.346 681.83 120.452 681.752 120.531C681.673 120.61 681.566 120.654 681.455 120.654H655.664C655.553 120.654 655.447 120.61 655.368 120.531C655.29 120.452 655.245 120.346 655.245 120.235V80.88C655.245 80.7689 655.29 80.6623 655.368 80.5837C655.447 80.5051 655.553 80.4609 655.664 80.4609H680.989C681.101 80.4609 681.207 80.5051 681.286 80.5837C681.364 80.6623 681.409 80.7689 681.409 80.88V84.4656C681.409 84.5767 681.364 84.6833 681.286 84.7619C681.207 84.8405 681.101 84.8847 680.989 84.8847Z" fill="white"/>
<path d="M407.143 140.709C407.072 140.729 406.996 140.727 406.926 140.703C406.856 140.678 406.795 140.632 406.752 140.572C406.709 140.511 406.686 140.439 406.686 140.364C406.685 140.29 406.708 140.218 406.751 140.157C407.181 139.549 407.84 138.931 408.727 138.301C408.832 138.226 408.958 138.185 409.087 138.183C409.216 138.18 409.344 138.217 409.452 138.288C410.263 138.82 410.831 139.376 411.155 139.957C411.183 140.009 411.2 140.066 411.204 140.124C411.208 140.182 411.2 140.241 411.179 140.295C411.159 140.349 411.127 140.397 411.086 140.436C411.045 140.476 410.996 140.505 410.942 140.523L410.882 140.543C410.758 140.584 410.624 140.586 410.499 140.549C410.374 140.512 410.264 140.438 410.184 140.336C409.829 139.893 409.518 139.62 409.252 139.518C409.143 139.475 409.023 139.467 408.909 139.494C408.795 139.521 408.691 139.583 408.614 139.671C408.108 140.23 407.618 140.576 407.143 140.709Z" fill="white"/>
<path d="M396.739 147.714C396.864 148.215 396.906 149.208 396.866 150.694C396.839 151.643 396.418 152.328 395.602 152.749C391.132 155.051 386.196 153.295 385.763 148.02C385.291 142.312 391.544 138.879 395.941 142.751C396.063 142.858 396.143 143.005 396.166 143.165C396.189 143.325 396.154 143.487 396.068 143.623L395.935 143.835C395.905 143.883 395.865 143.924 395.817 143.955C395.769 143.985 395.715 144.005 395.659 144.012C395.603 144.019 395.546 144.013 395.493 143.995C395.439 143.978 395.39 143.948 395.349 143.909C392.149 140.849 387.805 142.525 387.18 146.643C386.515 151.026 389.941 153.488 394.005 152.137C395.609 151.605 395.868 150.268 395.509 148.831C395.487 148.74 395.434 148.66 395.361 148.602C395.287 148.544 395.197 148.512 395.103 148.512H393.047C392.927 148.512 392.812 148.464 392.728 148.379C392.643 148.295 392.595 148.18 392.595 148.06V147.793C392.595 147.681 392.64 147.572 392.72 147.492C392.8 147.413 392.908 147.368 393.021 147.368H396.3C396.401 147.368 396.499 147.402 396.578 147.465C396.658 147.527 396.714 147.615 396.739 147.714Z" fill="white"/>
<path d="M680.956 147.442C681.056 147.444 681.152 147.48 681.229 147.544C681.306 147.608 681.36 147.696 681.382 147.795C681.497 148.296 681.517 149.283 681.442 150.755C681.393 151.7 680.959 152.371 680.138 152.771C675.641 154.953 670.779 153.09 670.473 147.835C670.14 142.154 676.433 138.894 680.71 142.845C680.829 142.954 680.904 143.101 680.924 143.26C680.943 143.418 680.905 143.578 680.817 143.71L680.677 143.923C680.646 143.97 680.605 144.01 680.557 144.039C680.509 144.068 680.455 144.087 680.399 144.092C680.342 144.098 680.286 144.091 680.233 144.072C680.18 144.053 680.131 144.023 680.092 143.983C676.985 140.863 672.634 142.426 671.916 146.504C671.151 150.841 674.497 153.369 678.562 152.125C680.171 151.633 680.458 150.309 680.138 148.872C680.117 148.781 680.067 148.698 679.994 148.639C679.922 148.58 679.832 148.547 679.739 148.546L677.697 148.5C677.578 148.496 677.465 148.446 677.383 148.36C677.301 148.275 677.256 148.16 677.258 148.041L677.264 147.775C677.268 147.663 677.315 147.557 677.396 147.48C677.477 147.403 677.585 147.361 677.697 147.362L680.956 147.442Z" fill="white"/>
<path d="M373.896 141.223C374.264 141.223 374.499 141.342 374.601 141.582C375.55 143.826 377.102 147.649 379.257 153.05C379.283 153.116 379.293 153.186 379.285 153.256C379.278 153.326 379.253 153.393 379.214 153.452C379.175 153.51 379.122 153.558 379.06 153.591C378.998 153.624 378.929 153.642 378.858 153.642H378.579C378.458 153.642 378.34 153.606 378.24 153.539C378.139 153.471 378.061 153.375 378.013 153.263L376.949 150.702C376.893 150.571 376.797 150.46 376.675 150.388C376.553 150.315 376.411 150.283 376.271 150.296C376.155 150.296 375.366 150.296 373.902 150.296C372.434 150.296 371.645 150.296 371.534 150.296C371.393 150.283 371.252 150.315 371.13 150.388C371.008 150.46 370.912 150.571 370.856 150.702L369.791 153.263C369.744 153.375 369.665 153.471 369.565 153.539C369.464 153.606 369.346 153.642 369.226 153.642H368.946C368.876 153.642 368.807 153.624 368.745 153.591C368.683 153.558 368.63 153.51 368.591 153.452C368.551 153.393 368.527 153.326 368.519 153.256C368.512 153.186 368.521 153.116 368.547 153.05C370.703 147.649 372.255 143.826 373.204 141.582C373.306 141.342 373.536 141.223 373.896 141.223ZM373.922 149.126C375.208 149.13 375.871 149.13 375.911 149.126C375.971 149.117 376.027 149.094 376.076 149.059C376.124 149.024 376.163 148.977 376.19 148.923C376.217 148.869 376.23 148.809 376.229 148.748C376.228 148.687 376.213 148.627 376.184 148.573C375.47 147.247 374.827 145.682 374.255 143.877C374.197 143.695 374.095 143.602 373.949 143.598C373.807 143.598 373.705 143.688 373.643 143.87C373.053 145.671 372.395 147.232 371.667 148.553C371.639 148.607 371.623 148.666 371.621 148.727C371.62 148.787 371.633 148.847 371.659 148.901C371.685 148.955 371.723 149.002 371.771 149.037C371.819 149.073 371.874 149.096 371.933 149.106C371.973 149.11 372.636 149.117 373.922 149.126Z" fill="white"/>
<path d="M405.081 147.389C405.081 143.868 405.081 141.945 405.081 141.621C405.081 141.53 405.118 141.442 405.183 141.377C405.247 141.312 405.335 141.275 405.427 141.275L412.618 141.202C412.679 141.201 412.74 141.212 412.797 141.235C412.854 141.258 412.906 141.291 412.95 141.334C412.993 141.376 413.028 141.427 413.053 141.483C413.077 141.54 413.09 141.6 413.091 141.661L413.097 141.867C413.098 141.934 413.086 142.001 413.061 142.063C413.036 142.125 412.999 142.182 412.952 142.229C412.904 142.277 412.848 142.315 412.787 142.341C412.725 142.366 412.659 142.38 412.592 142.38L406.738 142.44C406.682 142.439 406.628 142.451 406.577 142.472C406.526 142.494 406.48 142.525 406.441 142.565C406.403 142.605 406.373 142.652 406.353 142.703C406.333 142.755 406.323 142.81 406.325 142.865L406.365 146.424C406.365 146.482 406.377 146.54 406.4 146.593C406.423 146.647 406.457 146.695 406.499 146.735C406.542 146.775 406.592 146.806 406.646 146.825C406.701 146.845 406.759 146.854 406.818 146.85C407.146 146.832 408.62 146.808 411.241 146.777C411.445 146.772 411.596 146.828 411.694 146.943C411.804 147.067 411.86 147.207 411.86 147.362C411.86 147.553 411.804 147.71 411.694 147.834C411.6 147.95 411.45 148.005 411.241 148.001C408.62 147.974 407.146 147.952 406.818 147.934C406.759 147.931 406.701 147.939 406.646 147.959C406.592 147.978 406.542 148.009 406.499 148.049C406.457 148.089 406.423 148.137 406.4 148.191C406.377 148.244 406.365 148.302 406.365 148.36L406.332 151.919C406.331 151.973 406.341 152.027 406.361 152.077C406.381 152.128 406.41 152.174 406.448 152.213C406.486 152.251 406.531 152.283 406.58 152.304C406.63 152.326 406.684 152.337 406.738 152.338L412.598 152.398C412.665 152.399 412.73 152.413 412.791 152.439C412.852 152.465 412.908 152.503 412.954 152.551C413 152.598 413.037 152.654 413.061 152.716C413.086 152.778 413.098 152.844 413.097 152.91V153.11C413.097 153.171 413.085 153.232 413.061 153.289C413.037 153.346 413.002 153.398 412.958 153.441C412.915 153.485 412.862 153.519 412.805 153.542C412.748 153.565 412.687 153.576 412.625 153.575L405.427 153.502C405.335 153.502 405.247 153.466 405.183 153.401C405.118 153.336 405.081 153.248 405.081 153.156C405.081 152.837 405.081 150.914 405.081 147.389Z" fill="white"/>
<path d="M426.522 147.148C427.386 148.364 428.293 149.616 429.242 150.907C429.26 150.932 429.284 150.953 429.311 150.968C429.337 150.984 429.367 150.993 429.398 150.997C429.429 151 429.46 150.996 429.489 150.987C429.519 150.977 429.545 150.961 429.568 150.94C429.661 150.847 429.708 150.727 429.708 150.581C429.659 147.477 429.65 144.554 429.681 141.813C429.683 141.68 429.737 141.554 429.832 141.46C429.926 141.367 430.054 141.314 430.187 141.314H430.52C430.645 141.314 430.765 141.365 430.854 141.455C430.942 141.545 430.992 141.666 430.992 141.793V153.029C430.991 153.193 430.94 153.353 430.843 153.486C430.747 153.619 430.612 153.719 430.456 153.771C430.301 153.823 430.132 153.825 429.976 153.777C429.819 153.728 429.681 153.632 429.582 153.501C429.311 153.147 427.972 151.277 425.564 147.893C424.712 146.669 423.812 145.412 422.863 144.122C422.844 144.097 422.821 144.077 422.794 144.062C422.766 144.047 422.737 144.038 422.706 144.036C422.675 144.033 422.644 144.037 422.615 144.047C422.586 144.058 422.559 144.074 422.537 144.095C422.444 144.188 422.397 144.308 422.397 144.454C422.446 147.559 422.455 150.481 422.424 153.222C422.422 153.355 422.368 153.482 422.273 153.575C422.179 153.669 422.051 153.721 421.918 153.721H421.586C421.46 153.721 421.34 153.67 421.252 153.581C421.163 153.491 421.113 153.369 421.113 153.242V142.006C421.112 141.841 421.163 141.681 421.259 141.546C421.354 141.412 421.49 141.311 421.646 141.258C421.802 141.206 421.971 141.203 422.128 141.251C422.286 141.299 422.424 141.396 422.524 141.527C422.794 141.887 424.127 143.76 426.522 147.148Z" fill="white"/>
<path d="M440.604 147.475C440.611 150.169 442.114 152.291 444.942 152.477C446.503 152.575 447.784 152.076 448.787 150.98C448.844 150.917 448.915 150.866 448.994 150.832C449.073 150.797 449.158 150.78 449.244 150.78C449.33 150.781 449.415 150.8 449.493 150.835C449.571 150.871 449.641 150.923 449.698 150.987L449.751 151.054C449.81 151.119 449.854 151.195 449.883 151.278C449.912 151.36 449.924 151.448 449.918 151.535C449.912 151.623 449.89 151.708 449.851 151.786C449.812 151.865 449.758 151.934 449.691 151.992C445.427 155.624 439.36 153.282 439.347 147.475C439.327 141.667 445.387 139.293 449.665 142.911C449.731 142.968 449.786 143.038 449.826 143.116C449.865 143.194 449.889 143.279 449.895 143.366C449.901 143.454 449.89 143.541 449.862 143.624C449.834 143.707 449.789 143.784 449.731 143.849L449.678 143.916C449.621 143.98 449.551 144.032 449.473 144.068C449.395 144.103 449.31 144.122 449.224 144.123C449.138 144.123 449.053 144.106 448.974 144.071C448.895 144.037 448.825 143.986 448.767 143.922C447.76 142.832 446.476 142.339 444.915 142.446C442.094 142.645 440.598 144.781 440.604 147.475Z" fill="white"/>
<path d="M458.725 141.249H458.432C458.146 141.249 457.913 141.481 457.913 141.768V153.09C457.913 153.377 458.146 153.609 458.432 153.609H458.725C459.011 153.609 459.244 153.377 459.244 153.09V141.768C459.244 141.481 459.011 141.249 458.725 141.249Z" fill="white"/>
<path d="M472.362 150.289C470.89 150.28 470.098 150.276 469.987 150.276C469.845 150.26 469.702 150.292 469.579 150.365C469.455 150.438 469.358 150.549 469.302 150.681L468.224 153.242C468.177 153.355 468.098 153.451 467.998 153.518C467.897 153.585 467.779 153.621 467.659 153.622H467.373C467.302 153.621 467.233 153.602 467.171 153.568C467.109 153.534 467.057 153.485 467.018 153.426C466.979 153.367 466.955 153.3 466.949 153.229C466.942 153.159 466.953 153.088 466.98 153.023C469.167 147.617 470.741 143.792 471.703 141.548C471.805 141.304 472.04 141.184 472.409 141.189C472.768 141.189 472.998 141.311 473.1 141.554C474.045 143.807 475.584 147.648 477.717 153.076C477.743 153.142 477.753 153.212 477.745 153.282C477.737 153.352 477.713 153.419 477.674 153.477C477.634 153.536 477.581 153.584 477.519 153.617C477.457 153.65 477.388 153.668 477.318 153.668H477.038C476.917 153.668 476.799 153.63 476.698 153.562C476.597 153.493 476.519 153.396 476.473 153.282L475.415 150.708C475.359 150.577 475.263 150.466 475.141 150.393C475.019 150.32 474.878 150.288 474.737 150.302C474.622 150.298 473.83 150.293 472.362 150.289ZM470.094 148.679C470.075 148.723 470.068 148.771 470.072 148.819C470.076 148.867 470.092 148.913 470.119 148.953C470.145 148.993 470.181 149.026 470.223 149.049C470.265 149.072 470.312 149.084 470.36 149.085L474.391 149.098C474.439 149.097 474.486 149.085 474.528 149.062C474.57 149.039 474.605 149.006 474.632 148.966C474.658 148.926 474.674 148.88 474.679 148.832C474.683 148.785 474.676 148.737 474.657 148.692L472.661 143.823C472.639 143.77 472.601 143.725 472.553 143.693C472.506 143.662 472.449 143.645 472.392 143.645C472.334 143.645 472.278 143.662 472.23 143.693C472.182 143.725 472.145 143.77 472.122 143.823L470.094 148.679Z" fill="white"/>
<path d="M494.86 141.515C494.86 141.483 494.866 141.452 494.878 141.423C494.89 141.394 494.908 141.368 494.93 141.346C494.952 141.323 494.979 141.306 495.008 141.294C495.037 141.282 495.068 141.275 495.099 141.275L499.051 141.295C499.839 141.298 500.619 141.456 501.346 141.762C502.073 142.067 502.733 142.513 503.288 143.075C503.843 143.636 504.283 144.302 504.582 145.034C504.881 145.767 505.034 146.551 505.031 147.342V147.635C505.026 149.233 504.389 150.764 503.26 151.891C502.131 153.017 500.602 153.647 499.011 153.642L495.06 153.622C494.996 153.622 494.935 153.597 494.89 153.552C494.845 153.507 494.82 153.446 494.82 153.382L494.86 141.515ZM496.124 142.706L496.19 152.205C496.19 152.263 496.214 152.319 496.255 152.36C496.296 152.401 496.352 152.425 496.41 152.425L499.064 152.405C499.672 152.4 500.273 152.276 500.833 152.04C501.394 151.804 501.902 151.461 502.328 151.029C502.755 150.597 503.093 150.086 503.321 149.524C503.55 148.962 503.665 148.361 503.661 147.755V147.05C503.657 146.443 503.533 145.844 503.296 145.285C503.059 144.727 502.714 144.22 502.281 143.795C501.848 143.369 501.336 143.033 500.772 142.805C500.209 142.577 499.606 142.462 498.998 142.466L496.343 142.486C496.285 142.486 496.229 142.509 496.188 142.55C496.147 142.592 496.124 142.647 496.124 142.706Z" fill="white"/>
<path d="M520.165 147.375C520.165 147.566 520.112 147.725 520.005 147.854C519.908 147.969 519.755 148.027 519.546 148.027C516.903 148.022 515.415 148.014 515.083 148C515.025 147.997 514.966 148.005 514.912 148.025C514.857 148.045 514.807 148.077 514.764 148.117C514.722 148.158 514.688 148.207 514.665 148.261C514.642 148.315 514.63 148.374 514.63 148.433V152.025C514.63 152.136 514.675 152.243 514.753 152.321C514.832 152.4 514.938 152.444 515.049 152.444H520.957C521.024 152.444 521.091 152.457 521.153 152.483C521.215 152.509 521.271 152.546 521.319 152.594C521.366 152.642 521.404 152.698 521.43 152.76C521.456 152.822 521.469 152.889 521.469 152.956V153.162C521.469 153.288 521.419 153.408 521.33 153.496C521.242 153.585 521.122 153.635 520.996 153.635H513.739C513.647 153.635 513.558 153.598 513.492 153.534C513.426 153.469 513.388 153.381 513.386 153.289C513.382 152.965 513.362 151.025 513.327 147.468C513.291 143.916 513.271 141.978 513.267 141.654C513.267 141.562 513.303 141.473 513.368 141.407C513.432 141.341 513.52 141.303 513.613 141.301L520.87 141.148C520.932 141.148 520.994 141.159 521.051 141.182C521.109 141.205 521.162 141.239 521.206 141.282C521.251 141.325 521.286 141.377 521.311 141.434C521.335 141.491 521.348 141.552 521.349 141.614L521.356 141.82C521.357 141.888 521.344 141.954 521.319 142.017C521.294 142.079 521.257 142.136 521.21 142.185C521.164 142.233 521.108 142.271 521.046 142.298C520.984 142.324 520.917 142.338 520.85 142.339L514.95 142.466C514.895 142.466 514.84 142.478 514.79 142.5C514.739 142.522 514.694 142.554 514.655 142.593C514.617 142.633 514.587 142.679 514.567 142.73C514.546 142.782 514.536 142.836 514.537 142.891L514.61 146.484C514.612 146.542 514.625 146.6 514.65 146.653C514.674 146.706 514.709 146.754 514.752 146.793C514.795 146.832 514.845 146.862 514.899 146.881C514.954 146.9 515.012 146.907 515.069 146.903C515.402 146.885 516.89 146.847 519.533 146.79C519.741 146.785 519.895 146.838 519.992 146.949C520.107 147.078 520.165 147.22 520.165 147.375Z" fill="white"/>
<path d="M545.084 148.552C545.173 148.552 545.233 148.543 545.264 148.526C545.344 148.49 545.39 148.459 545.404 148.432C547.319 145.031 548.696 142.774 549.535 141.66C549.725 141.403 549.998 141.266 550.353 141.248C550.43 141.244 550.507 141.256 550.58 141.283C550.653 141.31 550.719 141.351 550.775 141.404C550.831 141.457 550.875 141.52 550.906 141.591C550.936 141.661 550.952 141.737 550.952 141.813V153.249C550.952 153.302 550.941 153.355 550.921 153.404C550.9 153.453 550.87 153.498 550.833 153.536C550.795 153.573 550.75 153.603 550.701 153.623C550.652 153.644 550.599 153.654 550.546 153.654H550.28C550.124 153.654 549.976 153.593 549.866 153.485C549.756 153.376 549.694 153.229 549.694 153.076V144.528C549.694 144.463 549.673 144.401 549.633 144.35C549.594 144.299 549.539 144.263 549.477 144.246C549.415 144.229 549.35 144.234 549.29 144.258C549.231 144.282 549.181 144.326 549.149 144.381C548.186 146.035 547.04 147.909 545.71 150.002C545.466 150.384 545.255 150.574 545.078 150.574C544.9 150.574 544.692 150.381 544.452 149.996C543.135 147.898 542 146.02 541.046 144.361C541.016 144.303 540.967 144.256 540.907 144.229C540.846 144.203 540.779 144.197 540.715 144.213C540.651 144.229 540.595 144.266 540.555 144.319C540.515 144.371 540.493 144.435 540.494 144.501L540.454 153.049C540.454 153.126 540.439 153.201 540.409 153.272C540.379 153.343 540.336 153.407 540.281 153.461C540.225 153.514 540.16 153.557 540.088 153.586C540.017 153.614 539.94 153.629 539.862 153.628H539.596C539.543 153.627 539.49 153.616 539.441 153.594C539.393 153.573 539.348 153.543 539.311 153.504C539.274 153.466 539.245 153.421 539.225 153.371C539.206 153.322 539.196 153.269 539.197 153.215L539.257 141.78C539.258 141.704 539.274 141.629 539.305 141.559C539.336 141.49 539.38 141.427 539.436 141.375C539.492 141.323 539.558 141.282 539.63 141.256C539.702 141.229 539.779 141.218 539.856 141.221C540.21 141.239 540.483 141.379 540.674 141.64C541.503 142.754 542.867 145.018 544.765 148.432C544.778 148.459 544.825 148.49 544.905 148.526C544.94 148.543 545 148.552 545.084 148.552Z" fill="white"/>
<path d="M564.043 150.288C562.575 150.279 561.786 150.275 561.675 150.275C561.534 150.259 561.391 150.29 561.268 150.361C561.145 150.433 561.047 150.543 560.99 150.674L559.912 153.235C559.863 153.347 559.783 153.442 559.681 153.509C559.58 153.575 559.461 153.609 559.34 153.608H559.061C558.991 153.606 558.922 153.588 558.861 153.554C558.8 153.521 558.748 153.473 558.709 153.414C558.671 153.356 558.647 153.29 558.64 153.22C558.633 153.151 558.642 153.081 558.668 153.016C560.854 147.623 562.429 143.807 563.391 141.567C563.498 141.328 563.733 141.208 564.096 141.208C564.455 141.212 564.686 141.334 564.788 141.574C565.728 143.827 567.261 147.661 569.385 153.076C569.411 153.141 569.421 153.213 569.413 153.283C569.405 153.354 569.38 153.421 569.34 153.48C569.3 153.538 569.246 153.586 569.183 153.619C569.12 153.651 569.05 153.668 568.979 153.668L568.7 153.661C568.579 153.661 568.461 153.625 568.361 153.557C568.26 153.49 568.181 153.394 568.134 153.282L567.09 150.714C567.035 150.581 566.939 150.47 566.817 150.396C566.695 150.321 566.553 150.288 566.411 150.302C566.296 150.302 565.507 150.297 564.043 150.288ZM561.848 148.645C561.828 148.696 561.821 148.75 561.828 148.804C561.834 148.858 561.854 148.909 561.885 148.954C561.915 148.999 561.957 149.035 562.005 149.06C562.053 149.085 562.106 149.098 562.16 149.098L565.939 149.084C565.993 149.084 566.045 149.07 566.093 149.044C566.14 149.019 566.18 148.982 566.21 148.938C566.24 148.894 566.259 148.843 566.265 148.789C566.271 148.736 566.264 148.682 566.245 148.632L564.342 143.829C564.318 143.767 564.275 143.714 564.22 143.676C564.165 143.639 564.1 143.619 564.033 143.619C563.966 143.619 563.901 143.639 563.846 143.676C563.791 143.714 563.748 143.767 563.724 143.829L561.848 148.645Z" fill="white"/>
<path d="M576.995 153.169V141.721C576.995 141.611 577.038 141.505 577.116 141.427C577.193 141.348 577.298 141.303 577.408 141.302C579.745 141.248 581.341 141.248 582.197 141.302C585.27 141.488 586.581 145.213 584.752 147.422C584.306 147.961 583.774 148.08 583.268 148.453C583.188 148.511 583.132 148.598 583.112 148.697C583.092 148.795 583.11 148.898 583.162 148.985L585.57 153.163C585.602 153.219 585.618 153.282 585.618 153.346C585.618 153.41 585.601 153.473 585.57 153.529C585.538 153.584 585.492 153.63 585.438 153.661C585.383 153.693 585.32 153.709 585.257 153.708H584.945C584.785 153.708 584.629 153.666 584.491 153.585C584.353 153.505 584.239 153.389 584.16 153.249L581.865 149.278C581.785 149.142 581.672 149.03 581.536 148.952C581.399 148.873 581.244 148.832 581.086 148.832H578.818C578.759 148.832 578.701 148.843 578.647 148.865C578.593 148.887 578.544 148.92 578.503 148.961C578.461 149.001 578.428 149.05 578.406 149.103C578.384 149.156 578.372 149.213 578.372 149.271V153.063C578.372 153.223 578.308 153.377 578.195 153.491C578.081 153.604 577.927 153.668 577.767 153.668H577.487C577.357 153.668 577.232 153.616 577.139 153.522C577.047 153.428 576.995 153.302 576.995 153.169ZM578.292 142.772L578.346 147.388C578.347 147.463 578.378 147.534 578.432 147.586C578.485 147.639 578.557 147.668 578.632 147.668L581.545 147.641C581.92 147.637 582.291 147.569 582.636 147.44C582.981 147.312 583.294 147.126 583.557 146.892C583.819 146.658 584.026 146.382 584.166 146.079C584.306 145.777 584.376 145.453 584.372 145.127V144.901C584.365 144.243 584.057 143.616 583.517 143.157C582.977 142.698 582.248 142.444 581.492 142.452L578.578 142.479C578.54 142.479 578.502 142.487 578.467 142.501C578.432 142.516 578.4 142.538 578.374 142.565C578.347 142.592 578.326 142.625 578.312 142.66C578.298 142.696 578.291 142.734 578.292 142.772Z" fill="white"/>
<path d="M601.429 141.27H602.513C602.556 141.269 602.599 141.282 602.635 141.305C602.672 141.328 602.701 141.361 602.719 141.4C602.737 141.44 602.744 141.483 602.738 141.526C602.732 141.569 602.714 141.609 602.686 141.642L598.342 146.631C598.309 146.67 598.29 146.718 598.287 146.769C598.285 146.819 598.299 146.869 598.329 146.911L602.613 153.303C602.636 153.337 602.649 153.377 602.651 153.418C602.653 153.459 602.645 153.499 602.625 153.535C602.606 153.572 602.578 153.602 602.543 153.623C602.508 153.644 602.468 153.656 602.427 153.656H601.509C601.472 153.656 601.436 153.647 601.403 153.629C601.371 153.612 601.343 153.587 601.322 153.556L597.557 147.942C597.539 147.914 597.514 147.891 597.486 147.875C597.457 147.858 597.425 147.847 597.392 147.844C597.359 147.841 597.326 147.845 597.295 147.856C597.263 147.867 597.235 147.885 597.211 147.908L595.222 149.904C595.18 149.946 595.156 150.004 595.156 150.064V153.343C595.156 153.403 595.132 153.461 595.09 153.503C595.047 153.546 594.99 153.57 594.93 153.57H594.111C594.051 153.57 593.994 153.546 593.952 153.503C593.909 153.461 593.885 153.403 593.885 153.343V141.516C593.885 141.456 593.909 141.398 593.952 141.356C593.994 141.313 594.051 141.29 594.111 141.29H594.97C595.03 141.29 595.087 141.313 595.129 141.356C595.172 141.398 595.196 141.456 595.196 141.516V147.709C595.196 147.755 595.21 147.801 595.236 147.839C595.263 147.877 595.3 147.906 595.344 147.922C595.388 147.938 595.435 147.94 595.48 147.928C595.525 147.916 595.565 147.891 595.595 147.855L601.263 141.349C601.283 141.325 601.309 141.305 601.337 141.292C601.366 141.278 601.397 141.27 601.429 141.27Z" fill="white"/>
<path d="M610.789 147.456C610.758 143.899 610.742 141.956 610.742 141.628C610.742 141.536 610.778 141.447 610.843 141.381C610.908 141.315 610.996 141.277 611.088 141.276L618.359 141.143C618.421 141.142 618.482 141.153 618.54 141.176C618.598 141.199 618.65 141.233 618.695 141.276C618.739 141.319 618.775 141.371 618.799 141.428C618.824 141.485 618.837 141.546 618.838 141.608L618.844 141.815C618.846 141.882 618.834 141.95 618.81 142.013C618.785 142.076 618.749 142.134 618.701 142.183C618.654 142.232 618.598 142.271 618.536 142.298C618.474 142.325 618.407 142.339 618.339 142.34L612.425 142.446C612.37 142.447 612.316 142.459 612.265 142.481C612.215 142.503 612.169 142.534 612.131 142.574C612.092 142.613 612.062 142.66 612.042 142.711C612.022 142.763 612.012 142.817 612.013 142.872L612.079 146.471C612.08 146.53 612.093 146.589 612.116 146.642C612.14 146.696 612.175 146.745 612.218 146.785C612.261 146.825 612.312 146.855 612.367 146.874C612.422 146.894 612.48 146.901 612.538 146.897C612.871 146.875 614.361 146.839 617.008 146.79C617.217 146.786 617.37 146.841 617.467 146.957C617.578 147.081 617.634 147.221 617.634 147.376C617.638 147.571 617.585 147.731 617.474 147.855C617.376 147.97 617.223 148.028 617.015 148.028C614.367 148.019 612.877 148.008 612.545 147.994C612.487 147.991 612.428 147.999 612.374 148.019C612.319 148.039 612.269 148.071 612.226 148.111C612.184 148.152 612.15 148.201 612.127 148.255C612.104 148.309 612.092 148.368 612.092 148.427L612.086 152.026C612.086 152.081 612.097 152.135 612.118 152.186C612.139 152.237 612.17 152.283 612.208 152.322C612.247 152.361 612.294 152.392 612.344 152.413C612.395 152.434 612.45 152.445 612.505 152.445L618.419 152.458C618.555 152.458 618.685 152.512 618.781 152.608C618.877 152.704 618.931 152.834 618.931 152.97V153.177C618.931 153.302 618.881 153.422 618.793 153.51C618.704 153.599 618.584 153.649 618.459 153.649L611.188 153.636C611.141 153.636 611.095 153.626 611.053 153.609C611.01 153.591 610.971 153.565 610.938 153.532C610.906 153.5 610.88 153.461 610.862 153.418C610.844 153.375 610.835 153.329 610.835 153.283C610.831 152.959 610.815 151.017 610.789 147.456Z" fill="white"/>
<path d="M656.855 147.835C656.004 146.624 655.104 145.38 654.154 144.103C654.136 144.079 654.113 144.058 654.086 144.043C654.059 144.028 654.03 144.018 654 144.015C653.97 144.012 653.94 144.015 653.911 144.025C653.883 144.034 653.857 144.05 653.835 144.07C653.742 144.163 653.696 144.283 653.696 144.429C653.758 147.507 653.778 150.405 653.755 153.124C653.755 153.256 653.703 153.383 653.609 153.476C653.516 153.57 653.389 153.623 653.256 153.623H652.924C652.8 153.623 652.682 153.573 652.595 153.484C652.507 153.396 652.458 153.275 652.458 153.15L652.418 142.008C652.417 141.844 652.467 141.685 652.561 141.551C652.656 141.418 652.79 141.318 652.944 141.265C653.099 141.212 653.266 141.209 653.422 141.256C653.579 141.304 653.716 141.399 653.815 141.529C654.081 141.884 655.41 143.737 657.8 147.09C658.66 148.292 659.565 149.531 660.514 150.809C660.533 150.833 660.556 150.854 660.582 150.869C660.609 150.884 660.638 150.893 660.668 150.896C660.699 150.9 660.729 150.896 660.757 150.887C660.786 150.878 660.812 150.862 660.833 150.842C660.926 150.749 660.971 150.629 660.966 150.483C660.909 147.405 660.891 144.507 660.913 141.788C660.915 141.657 660.968 141.532 661.062 141.44C661.155 141.348 661.281 141.296 661.412 141.296L661.745 141.289C661.806 141.289 661.867 141.302 661.924 141.326C661.981 141.35 662.033 141.385 662.076 141.43C662.12 141.475 662.154 141.527 662.177 141.585C662.2 141.644 662.211 141.706 662.21 141.768L662.25 152.904C662.252 153.067 662.202 153.227 662.107 153.36C662.013 153.494 661.879 153.594 661.724 153.647C661.57 153.7 661.403 153.703 661.246 153.656C661.09 153.608 660.952 153.513 660.853 153.383C660.587 153.028 659.255 151.179 656.855 147.835Z" fill="white"/>
<path d="M630.1 141.282C631.501 141.273 632.838 141.302 634.111 141.368C634.254 141.377 634.387 141.439 634.485 141.541C634.583 141.644 634.637 141.78 634.637 141.92V142.133C634.637 142.213 634.606 142.29 634.55 142.347C634.494 142.405 634.417 142.438 634.337 142.439L630.998 142.519C630.958 142.52 630.918 142.53 630.882 142.548C630.847 142.566 630.815 142.592 630.791 142.624C630.767 142.656 630.75 142.693 630.742 142.733C630.734 142.772 630.735 142.813 630.745 142.852C630.75 142.865 630.727 145.75 630.679 151.506C630.67 152.877 630.477 153.562 630.1 153.562C629.723 153.562 629.53 152.877 629.521 151.506C629.472 145.75 629.45 142.865 629.455 142.852C629.465 142.813 629.466 142.772 629.458 142.733C629.45 142.693 629.433 142.656 629.409 142.624C629.385 142.592 629.353 142.566 629.317 142.548C629.282 142.53 629.242 142.52 629.202 142.519L625.862 142.439C625.781 142.439 625.704 142.407 625.646 142.35C625.589 142.292 625.557 142.214 625.557 142.133V141.92C625.556 141.778 625.612 141.642 625.711 141.539C625.81 141.436 625.945 141.375 626.089 141.368C627.357 141.302 628.694 141.273 630.1 141.282Z" fill="white"/>
<path d="M642.925 141.282H642.726C642.465 141.282 642.254 141.494 642.254 141.755V153.117C642.254 153.377 642.465 153.589 642.726 153.589H642.925C643.186 153.589 643.398 153.377 643.398 153.117V141.755C643.398 141.494 643.186 141.282 642.925 141.282Z" fill="white"/>
</svg>
